{
  "accessors": [
    {
      "name": "infrared_analyzer_body_1_positions",
      "componentType": 5126,
      "count": 526,
      "min": [
        -150.08900451660156,
        -59.05509948730469,
        -246.61439514160156
      ],
      "max": [
        168.80870056152344,
        59.05509948730469,
        72.283203125
      ],
      "type": "VEC3",
      "bufferView": 0,
      "byteOffset": 0
    },
    {
      "name": "infrared_analyzer_body_1_normals",
      "componentType": 5126,
      "count": 526,
      "min": [
        -1,
        -1,
        -1
      ],
      "max": [
        1,
        1,
        1
      ],
      "type": "VEC3",
      "bufferView": 0,
      "byteOffset": 19332
    },
    {
      "name": "infrared_analyzer_body_1_texcoords",
      "componentType": 5126,
      "count": 526,
      "min": [
        -82.67720031738281,
        0
      ],
      "max": [
        82.67720031738281,
        263.2047119140625
      ],
      "type": "VEC2",
      "bufferView": 1,
      "byteOffset": 0
    },
    {
      "name": "infrared_analyzer_body_1_0_indices",
      "componentType": 5123,
      "count": 1512,
      "min": [
        0
      ],
      "max": [
        525
      ],
      "type": "SCALAR",
      "bufferView": 2,
      "byteOffset": 0
    },
    {
      "name": "infrared_analyzer_body_01_1_positions",
      "componentType": 5126,
      "count": 448,
      "min": [
        76.28900146484375,
        -25.98430061340332,
        -27.417200088500977
      ],
      "max": [
        92.03710174560547,
        25.98430061340332,
        24.551300048828125
      ],
      "type": "VEC3",
      "bufferView": 0,
      "byteOffset": 6312
    },
    {
      "name": "infrared_analyzer_body_01_1_normals",
      "componentType": 5126,
      "count": 448,
      "min": [
        -1,
        -1,
        -1
      ],
      "max": [
        1,
        1,
        1
      ],
      "type": "VEC3",
      "bufferView": 0,
      "byteOffset": 25644
    },
    {
      "name": "infrared_analyzer_body_01_1_texcoords",
      "componentType": 5126,
      "count": 448,
      "min": [
        0,
        1
      ],
      "max": [
        0,
        1
      ],
      "type": "VEC2",
      "bufferView": 1,
      "byteOffset": 4208
    },
    {
      "name": "infrared_analyzer_body_01_1_0_indices",
      "componentType": 5123,
      "count": 1332,
      "min": [
        0
      ],
      "max": [
        447
      ],
      "type": "SCALAR",
      "bufferView": 2,
      "byteOffset": 3024
    },
    {
      "name": "infrared_analyzer_body_02_1_positions",
      "componentType": 5126,
      "count": 448,
      "min": [
        -73.31729888916016,
        -25.98430061340332,
        -27.417200088500977
      ],
      "max": [
        -57.56919860839844,
        25.98430061340332,
        24.551300048828125
      ],
      "type": "VEC3",
      "bufferView": 0,
      "byteOffset": 11688
    },
    {
      "name": "infrared_analyzer_body_02_1_normals",
      "componentType": 5126,
      "count": 448,
      "min": [
        -1,
        -1,
        -1
      ],
      "max": [
        1,
        1,
        1
      ],
      "type": "VEC3",
      "bufferView": 0,
      "byteOffset": 31020
    },
    {
      "name": "infrared_analyzer_body_02_1_texcoords",
      "componentType": 5126,
      "count": 448,
      "min": [
        0,
        1
      ],
      "max": [
        0,
        1
      ],
      "type": "VEC2",
      "bufferView": 1,
      "byteOffset": 7792
    },
    {
      "name": "infrared_analyzer_body_02_1_0_indices",
      "componentType": 5123,
      "count": 1332,
      "min": [
        0
      ],
      "max": [
        447
      ],
      "type": "SCALAR",
      "bufferView": 2,
      "byteOffset": 5688
    },
    {
      "name": "infrared_analyzer_body_03_1_positions",
      "componentType": 5126,
      "count": 189,
      "min": [
        -54.025901794433594,
        -47.29570007324219,
        -44.7400016784668
      ],
      "max": [
        71.95829772949219,
        43.307098388671875,
        65.49620056152344
      ],
      "type": "VEC3",
      "bufferView": 0,
      "byteOffset": 17064
    },
    {
      "name": "infrared_analyzer_body_03_1_normals",
      "componentType": 5126,
      "count": 189,
      "min": [
        -1,
        -1,
        -1
      ],
      "max": [
        1,
        1,
        1
      ],
      "type": "VEC3",
      "bufferView": 0,
      "byteOffset": 36396
    },
    {
      "name": "infrared_analyzer_body_03_1_texcoords",
      "componentType": 5126,
      "count": 189,
      "min": [
        0,
        0
      ],
      "max": [
        1,
        1
      ],
      "type": "VEC2",
      "bufferView": 1,
      "byteOffset": 11376
    },
    {
      "name": "infrared_analyzer_body_03_1_0_indices",
      "componentType": 5123,
      "count": 366,
      "min": [
        0
      ],
      "max": [
        188
      ],
      "type": "SCALAR",
      "bufferView": 2,
      "byteOffset": 8352
    }
  ],
  "asset": {
    "generator": "obj2gltf",
    "version": "2.0"
  },
  "buffers": [
    {
      "name": "infrared_analyzer_body",
      "byteLength": 60636,
      "uri": "data:application/octet-stream;base64,"
    }
  ],
  "bufferViews": [
    {
      "name": "bufferView_0",
      "buffer": 0,
      "byteLength": 38664,
      "byteOffset": 0,
      "byteStride": 12,
      "target": 34962
    },
    {
      "name": "bufferView_1",
      "buffer": 0,
      "byteLength": 12888,
      "byteOffset": 38664,
      "byteStride": 8,
      "target": 34962
    },
    {
      "name": "bufferView_2",
      "buffer": 0,
      "byteLength": 9084,
      "byteOffset": 51552,
      "target": 34963
    }
  ],
  "materials": [
    {
      "name": "08___Default",
      "pbrMetallicRoughness": {
        "baseColorFactor": [
          0.7451,
          0.7451,
          0.7451,
          1
        ],
        "metallicFactor": 0,
        "roughnessFactor": 0.9457979999999999
      },
      "emissiveFactor": [
        0,
        0,
        0
      ],
      "alphaMode": "OPAQUE",
      "doubleSided": false
    },
    {
      "name": "wire_000000000",
      "pbrMetallicRoughness": {
        "baseColorFactor": [
          0,
          0,
          0,
          1
        ],
        "metallicFactor": 0,
        "roughnessFactor": 0.968
      },
      "emissiveFactor": [
        0,
        0,
        0
      ],
      "alphaMode": "OPAQUE",
      "doubleSided": false
    },
    {
      "name": "14___Standard",
      "pbrMetallicRoughness": {
        "baseColorFactor": [
          0.2392,
          0.2392,
          0.2392,
          1
        ],
        "metallicFactor": 0,
        "roughnessFactor": 0.98
      },
      "emissiveFactor": [
        0,
        0,
        0
      ],
      "alphaMode": "OPAQUE",
      "doubleSided": false
    }
  ],
  "meshes": [
    {
      "name": "infrared_analyzer_body_1",
      "primitives": [
        {
          "attributes": {
            "POSITION": 0,
            "NORMAL": 1,
            "TEXCOORD_0": 2
          },
          "indices": 3,
          "material": 0,
          "mode": 4
        }
      ]
    },
    {
      "name": "infrared_analyzer_body_01_1",
      "primitives": [
        {
          "attributes": {
            "POSITION": 4,
            "NORMAL": 5,
            "TEXCOORD_0": 6
          },
          "indices": 7,
          "material": 1,
          "mode": 4
        }
      ]
    },
    {
      "name": "infrared_analyzer_body_02_1",
      "primitives": [
        {
          "attributes": {
            "POSITION": 8,
            "NORMAL": 9,
            "TEXCOORD_0": 10
          },
          "indices": 11,
          "material": 1,
          "mode": 4
        }
      ]
    },
    {
      "name": "infrared_analyzer_body_03_1",
      "primitives": [
        {
          "attributes": {
            "POSITION": 12,
            "NORMAL": 13,
            "TEXCOORD_0": 14
          },
          "indices": 15,
          "material": 2,
          "mode": 4
        }
      ]
    }
  ],
  "nodes": [
    {
      "name": "infrared_analyzer_body",
      "mesh": 0
    },
    {
      "name": "infrared_analyzer_body_01",
      "mesh": 1
    },
    {
      "name": "infrared_analyzer_body_02",
      "mesh": 2
    },
    {
      "name": "infrared_analyzer_body_03",
      "mesh": 3
    }
  ],
  "scene": 0,
  "scenes": [
    {
      "nodes": [
        0,
        1,
        2,
        3
      ]
    }
  ]
}
