{
  "accessors": [
    {
      "name": "Plane001_1_positions",
      "componentType": 5126,
      "count": 2388,
      "min": [
        -30.59630012512207,
        -1.8858000040054321,
        -3.4321999549865723
      ],
      "max": [
        -15.464799880981445,
        1.017699956893921,
        3.7441000938415527
      ],
      "type": "VEC3",
      "bufferView": 0,
      "byteOffset": 0
    },
    {
      "name": "Plane001_1_normals",
      "componentType": 5126,
      "count": 2388,
      "min": [
        -0.9991999864578247,
        -1,
        -0.998199999332428
      ],
      "max": [
        0.9983999729156494,
        1,
        0.9998999834060669
      ],
      "type": "VEC3",
      "bufferView": 0,
      "byteOffset": 28656
    },
    {
      "name": "Plane001_1_texcoords",
      "componentType": 5126,
      "count": 2388,
      "min": [
        0.41999998688697815,
        0.2199999988079071
      ],
      "max": [
        0.8999999761581421,
        0.9399999976158142
      ],
      "type": "VEC2",
      "bufferView": 1,
      "byteOffset": 0
    },
    {
      "name": "Plane001_1_0_indices",
      "componentType": 5123,
      "count": 9420,
      "min": [
        0
      ],
      "max": [
        2387
      ],
      "type": "SCALAR",
      "bufferView": 2,
      "byteOffset": 0
    }
  ],
  "asset": {
    "generator": "obj2gltf",
    "version": "2.0"
  },
  "buffers": [
    {
      "name": "product_on-spoon",
      "byteLength": 95256,
      "uri": "data:application/octet-stream;base64,"
    }
  ],
  "bufferViews": [
    {
      "name": "bufferView_0",
      "buffer": 0,
      "byteLength": 57312,
      "byteOffset": 0,
      "byteStride": 12,
      "target": 34962
    },
    {
      "name": "bufferView_1",
      "buffer": 0,
      "byteLength": 19104,
      "byteOffset": 57312,
      "byteStride": 8,
      "target": 34962
    },
    {
      "name": "bufferView_2",
      "buffer": 0,
      "byteLength": 18840,
      "byteOffset": 76416,
      "target": 34963
    }
  ],
  "materials": [
    {
      "name": "08___Default",
      "pbrMetallicRoughness": {
        "baseColorFactor": [
          0.7804,
          0.7804,
          0.7804,
          1
        ],
        "metallicFactor": 0,
        "roughnessFactor": 0.99
      },
      "emissiveFactor": [
        0,
        0,
        0
      ],
      "alphaMode": "OPAQUE",
      "doubleSided": false
    }
  ],
  "meshes": [
    {
      "name": "Plane001_1",
      "primitives": [
        {
          "attributes": {
            "POSITION": 0,
            "NORMAL": 1,
            "TEXCOORD_0": 2
          },
          "indices": 3,
          "material": 0,
          "mode": 4
        }
      ]
    }
  ],
  "nodes": [
    {
      "name": "Plane001",
      "mesh": 0
    }
  ],
  "scene": 0,
  "scenes": [
    {
      "nodes": [
        0
      ]
    }
  ]
}
