{
  "accessors": [
    {
      "name": "infrared_analyzer_fix_frame_1_positions",
      "componentType": 5126,
      "count": 1300,
      "min": [
        -12.683199882507324,
        -31.646299362182617,
        -19.684999465942383
      ],
      "max": [
        1.2932000160217285,
        39.21989822387695,
        19.684999465942383
      ],
      "type": "VEC3",
      "bufferView": 0,
      "byteOffset": 0
    },
    {
      "name": "infrared_analyzer_fix_frame_1_normals",
      "componentType": 5126,
      "count": 1300,
      "min": [
        -1,
        -1,
        -1
      ],
      "max": [
        1,
        1,
        1
      ],
      "type": "VEC3",
      "bufferView": 0,
      "byteOffset": 15600
    },
    {
      "name": "infrared_analyzer_fix_frame_1_texcoords",
      "componentType": 5126,
      "count": 1300,
      "min": [
        0,
        0
      ],
      "max": [
        1.0277999639511108,
        1
      ],
      "type": "VEC2",
      "bufferView": 1,
      "byteOffset": 0
    },
    {
      "name": "infrared_analyzer_fix_frame_1_0_indices",
      "componentType": 5123,
      "count": 6168,
      "min": [
        0
      ],
      "max": [
        1299
      ],
      "type": "SCALAR",
      "bufferView": 2,
      "byteOffset": 0
    }
  ],
  "asset": {
    "generator": "obj2gltf",
    "version": "2.0"
  },
  "buffers": [
    {
      "name": "infrared_analyzer_fix_frame",
      "byteLength": 53936,
      "uri": "data:application/octet-stream;base64,"
    }
  ],
  "bufferViews": [
    {
      "name": "bufferView_0",
      "buffer": 0,
      "byteLength": 31200,
      "byteOffset": 0,
      "byteStride": 12,
      "target": 34962
    },
    {
      "name": "bufferView_1",
      "buffer": 0,
      "byteLength": 10400,
      "byteOffset": 31200,
      "byteStride": 8,
      "target": 34962
    },
    {
      "name": "bufferView_2",
      "buffer": 0,
      "byteLength": 12336,
      "byteOffset": 41600,
      "target": 34963
    }
  ],
  "materials": [
    {
      "name": "wire_228184153",
      "pbrMetallicRoughness": {
        "baseColorFactor": [
          0.8941,
          0.7216,
          0.6,
          1
        ],
        "metallicFactor": 0,
        "roughnessFactor": 0.968
      },
      "emissiveFactor": [
        0,
        0,
        0
      ],
      "alphaMode": "OPAQUE",
      "doubleSided": false
    }
  ],
  "meshes": [
    {
      "name": "infrared_analyzer_fix_frame_1",
      "primitives": [
        {
          "attributes": {
            "POSITION": 0,
            "NORMAL": 1,
            "TEXCOORD_0": 2
          },
          "indices": 3,
          "material": 0,
          "mode": 4
        }
      ]
    }
  ],
  "nodes": [
    {
      "name": "infrared_analyzer_fix_frame",
      "mesh": 0
    }
  ],
  "scene": 0,
  "scenes": [
    {
      "nodes": [
        0
      ]
    }
  ]
}
