{
  "accessors": [
    {
      "name": "beaker_1_positions",
      "componentType": 5126,
      "count": 11178,
      "min": [
        -10.838700294494629,
        -14.000399589538574,
        -12.559800148010254
      ],
      "max": [
        10.839099884033203,
        13.978400230407715,
        12.472900390625
      ],
      "type": "VEC3",
      "bufferView": 0,
      "byteOffset": 0
    },
    {
      "name": "beaker_1_normals",
      "componentType": 5126,
      "count": 11178,
      "min": [
        -1,
        -1,
        -1
      ],
      "max": [
        1,
        1,
        1
      ],
      "type": "VEC3",
      "bufferView": 0,
      "byteOffset": 167184
    },
    {
      "name": "beaker_1_texcoords",
      "componentType": 5126,
      "count": 11178,
      "min": [
        -0.027799999341368675,
        0
      ],
      "max": [
        1,
        1
      ],
      "type": "VEC2",
      "bufferView": 1,
      "byteOffset": 0
    },
    {
      "name": "beaker_1_0_indices",
      "componentType": 5123,
      "count": 65664,
      "min": [
        0
      ],
      "max": [
        11177
      ],
      "type": "SCALAR",
      "bufferView": 2,
      "byteOffset": 0
    },
    {
      "name": "Line006_1_positions",
      "componentType": 5126,
      "count": 264,
      "min": [
        5.656099796295166,
        -5.9054999351501465,
        -9.645700454711914
      ],
      "max": [
        10.091899871826172,
        5.9054999351501465,
        6.102399826049805
      ],
      "type": "VEC3",
      "bufferView": 0,
      "byteOffset": 134136
    },
    {
      "name": "Line006_1_normals",
      "componentType": 5126,
      "count": 264,
      "min": [
        -1,
        -1,
        -1
      ],
      "max": [
        1,
        1,
        1
      ],
      "type": "VEC3",
      "bufferView": 0,
      "byteOffset": 301320
    },
    {
      "name": "Line006_1_texcoords",
      "componentType": 5126,
      "count": 264,
      "min": [
        -5.9054999351501465,
        -6.874000072479248
      ],
      "max": [
        5.9054999351501465,
        8.87399959564209
      ],
      "type": "VEC2",
      "bufferView": 1,
      "byteOffset": 89424
    },
    {
      "name": "Line006_1_0_indices",
      "componentType": 5123,
      "count": 720,
      "min": [
        0
      ],
      "max": [
        263
      ],
      "type": "SCALAR",
      "bufferView": 2,
      "byteOffset": 131328
    },
    {
      "name": "Line005_1_positions",
      "componentType": 5126,
      "count": 1300,
      "min": [
        7.059800148010254,
        -5.02209997177124,
        -8.46780014038086
      ],
      "max": [
        10.091899871826172,
        5.02209997177124,
        4.924499988555908
      ],
      "type": "VEC3",
      "bufferView": 0,
      "byteOffset": 137304
    },
    {
      "name": "Line005_1_normals",
      "componentType": 5126,
      "count": 1300,
      "min": [
        -1,
        -1,
        -1
      ],
      "max": [
        1,
        1,
        1
      ],
      "type": "VEC3",
      "bufferView": 0,
      "byteOffset": 304488
    },
    {
      "name": "Line005_1_texcoords",
      "componentType": 5126,
      "count": 1300,
      "min": [
        -5.9054999351501465,
        -6.874000072479248
      ],
      "max": [
        5.9054999351501465,
        8.87399959564209
      ],
      "type": "VEC2",
      "bufferView": 1,
      "byteOffset": 91536
    },
    {
      "name": "Line005_1_0_indices",
      "componentType": 5123,
      "count": 3324,
      "min": [
        0
      ],
      "max": [
        1299
      ],
      "type": "SCALAR",
      "bufferView": 2,
      "byteOffset": 132768
    },
    {
      "name": "Text003_1_positions",
      "componentType": 5126,
      "count": 1190,
      "min": [
        7.904799938201904,
        -2.722399950027466,
        -7.273499965667725
      ],
      "max": [
        10.079700469970703,
        2.722399950027466,
        3.7302000522613525
      ],
      "type": "VEC3",
      "bufferView": 0,
      "byteOffset": 152904
    },
    {
      "name": "Text003_1_normals",
      "componentType": 5126,
      "count": 1190,
      "min": [
        -0.9847999811172485,
        -1,
        -1
      ],
      "max": [
        0.9847999811172485,
        1,
        1
      ],
      "type": "VEC3",
      "bufferView": 0,
      "byteOffset": 320088
    },
    {
      "name": "Text003_1_texcoords",
      "componentType": 5126,
      "count": 1190,
      "min": [
        -5.501800060272217,
        -3.8424999713897705
      ],
      "max": [
        5.501800060272217,
        1.6023999452590942
      ],
      "type": "VEC2",
      "bufferView": 1,
      "byteOffset": 101936
    },
    {
      "name": "Text003_1_0_indices",
      "componentType": 5123,
      "count": 2904,
      "min": [
        0
      ],
      "max": [
        1189
      ],
      "type": "SCALAR",
      "bufferView": 2,
      "byteOffset": 139416
    }
  ],
  "asset": {
    "generator": "obj2gltf",
    "version": "2.0"
  },
  "buffers": [
    {
      "name": "beaker",
      "byteLength": 591048,
      "uri": "data:application/octet-stream;base64,"
    }
  ],
  "bufferViews": [
    {
      "name": "bufferView_0",
      "buffer": 0,
      "byteLength": 334368,
      "byteOffset": 0,
      "byteStride": 12,
      "target": 34962
    },
    {
      "name": "bufferView_1",
      "buffer": 0,
      "byteLength": 111456,
      "byteOffset": 334368,
      "byteStride": 8,
      "target": 34962
    },
    {
      "name": "bufferView_2",
      "buffer": 0,
      "byteLength": 145224,
      "byteOffset": 445824,
      "target": 34963
    }
  ],
  "materials": [
    {
      "name": "03___Default",
      "pbrMetallicRoughness": {
        "baseColorFactor": [
          1,
          1,
          1,
          1
        ],
        "metallicFactor": 0,
        "roughnessFactor": 1
      },
      "emissiveFactor": [
        0,
        0,
        0
      ],
      "alphaMode": "OPAQUE",
      "doubleSided": false
    },
    {
      "name": "wire_135006006",
      "pbrMetallicRoughness": {
        "baseColorFactor": [
          0.5294,
          0.0235,
          0.0235,
          1
        ],
        "metallicFactor": 0,
        "roughnessFactor": 0.968
      },
      "emissiveFactor": [
        0,
        0,
        0
      ],
      "alphaMode": "OPAQUE",
      "doubleSided": false
    },
    {
      "name": "wire_255255255",
      "pbrMetallicRoughness": {
        "baseColorFactor": [
          1,
          1,
          1,
          1
        ],
        "metallicFactor": 0,
        "roughnessFactor": 0.968
      },
      "emissiveFactor": [
        0,
        0,
        0
      ],
      "alphaMode": "OPAQUE",
      "doubleSided": false
    },
    {
      "name": "wire_000000000",
      "pbrMetallicRoughness": {
        "baseColorFactor": [
          0,
          0,
          0,
          1
        ],
        "metallicFactor": 0,
        "roughnessFactor": 0.968
      },
      "emissiveFactor": [
        0,
        0,
        0
      ],
      "alphaMode": "OPAQUE",
      "doubleSided": false
    }
  ],
  "meshes": [
    {
      "name": "beaker_1",
      "primitives": [
        {
          "attributes": {
            "POSITION": 0,
            "NORMAL": 1,
            "TEXCOORD_0": 2
          },
          "indices": 3,
          "material": 0,
          "mode": 4
        }
      ]
    },
    {
      "name": "Line006_1",
      "primitives": [
        {
          "attributes": {
            "POSITION": 4,
            "NORMAL": 5,
            "TEXCOORD_0": 6
          },
          "indices": 7,
          "material": 1,
          "mode": 4
        }
      ]
    },
    {
      "name": "Line005_1",
      "primitives": [
        {
          "attributes": {
            "POSITION": 8,
            "NORMAL": 9,
            "TEXCOORD_0": 10
          },
          "indices": 11,
          "material": 2,
          "mode": 4
        }
      ]
    },
    {
      "name": "Text003_1",
      "primitives": [
        {
          "attributes": {
            "POSITION": 12,
            "NORMAL": 13,
            "TEXCOORD_0": 14
          },
          "indices": 15,
          "material": 3,
          "mode": 4
        }
      ]
    }
  ],
  "nodes": [
    {
      "name": "beaker",
      "mesh": 0
    },
    {
      "name": "Line006",
      "mesh": 1
    },
    {
      "name": "Line005",
      "mesh": 2
    },
    {
      "name": "Text003",
      "mesh": 3
    }
  ],
  "scene": 0,
  "scenes": [
    {
      "nodes": [
        0,
        1,
        2,
        3
      ]
    }
  ]
}
