{
  "accessors": [
    {
      "name": "press_screw_front_1_positions",
      "componentType": 5126,
      "count": 894,
      "min": [
        -12.811599731445312,
        -14.450599670410156,
        116.58540344238281
      ],
      "max": [
        12.811599731445312,
        14.450599670410156,
        139.55630493164062
      ],
      "type": "VEC3",
      "bufferView": 0,
      "byteOffset": 0
    },
    {
      "name": "press_screw_front_1_normals",
      "componentType": 5126,
      "count": 894,
      "min": [
        -1,
        -1,
        -1
      ],
      "max": [
        1,
        1,
        1
      ],
      "type": "VEC3",
      "bufferView": 0,
      "byteOffset": 88392
    },
    {
      "name": "press_screw_front_1_texcoords",
      "componentType": 5126,
      "count": 894,
      "min": [
        -18.30229949951172,
        -19.643699645996094
      ],
      "max": [
        18.30229949951172,
        21.643699645996094
      ],
      "type": "VEC2",
      "bufferView": 1,
      "byteOffset": 0
    },
    {
      "name": "press_screw_front_1_0_indices",
      "componentType": 5123,
      "count": 2922,
      "min": [
        0
      ],
      "max": [
        893
      ],
      "type": "SCALAR",
      "bufferView": 2,
      "byteOffset": 0
    },
    {
      "name": "press_screw_front_02_1_positions",
      "componentType": 5126,
      "count": 6244,
      "min": [
        -5.5117998123168945,
        -5.511899948120117,
        77.2083969116211
      ],
      "max": [
        5.5117998123168945,
        5.5117998123168945,
        116.57849884033203
      ],
      "type": "VEC3",
      "bufferView": 0,
      "byteOffset": 10728
    },
    {
      "name": "press_screw_front_02_1_normals",
      "componentType": 5126,
      "count": 6244,
      "min": [
        -0.9994999766349792,
        -0.9994999766349792,
        -1
      ],
      "max": [
        0.9994999766349792,
        0.9994999766349792,
        1
      ],
      "type": "VEC3",
      "bufferView": 0,
      "byteOffset": 99120
    },
    {
      "name": "press_screw_front_02_1_texcoords",
      "componentType": 5126,
      "count": 6244,
      "min": [
        -0.012299999594688416,
        0
      ],
      "max": [
        1,
        1
      ],
      "type": "VEC2",
      "bufferView": 1,
      "byteOffset": 7152
    },
    {
      "name": "press_screw_front_02_1_0_indices",
      "componentType": 5123,
      "count": 9504,
      "min": [
        0
      ],
      "max": [
        6243
      ],
      "type": "SCALAR",
      "bufferView": 2,
      "byteOffset": 5844
    },
    {
      "name": "press_screw_front_01_1_positions",
      "componentType": 5126,
      "count": 228,
      "min": [
        -4.684999942779541,
        -4.613900184631348,
        136.9882049560547
      ],
      "max": [
        4.684999942779541,
        4.613800048828125,
        138.91720581054688
      ],
      "type": "VEC3",
      "bufferView": 0,
      "byteOffset": 85656
    },
    {
      "name": "press_screw_front_01_1_normals",
      "componentType": 5126,
      "count": 228,
      "min": [
        -1,
        -1,
        -1
      ],
      "max": [
        1,
        1,
        1
      ],
      "type": "VEC3",
      "bufferView": 0,
      "byteOffset": 174048
    },
    {
      "name": "press_screw_front_01_1_texcoords",
      "componentType": 5126,
      "count": 228,
      "min": [
        -4.724400043487549,
        -3.0915000438690186
      ],
      "max": [
        4.724400043487549,
        5.0914998054504395
      ],
      "type": "VEC2",
      "bufferView": 1,
      "byteOffset": 57104
    },
    {
      "name": "press_screw_front_01_1_0_indices",
      "componentType": 5123,
      "count": 816,
      "min": [
        0
      ],
      "max": [
        227
      ],
      "type": "SCALAR",
      "bufferView": 2,
      "byteOffset": 24852
    }
  ],
  "asset": {
    "generator": "obj2gltf",
    "version": "2.0"
  },
  "buffers": [
    {
      "name": "press_screw_front",
      "byteLength": 262196,
      "uri": "data:application/octet-stream;base64,"
    }
  ],
  "bufferViews": [
    {
      "name": "bufferView_0",
      "buffer": 0,
      "byteLength": 176784,
      "byteOffset": 0,
      "byteStride": 12,
      "target": 34962
    },
    {
      "name": "bufferView_1",
      "buffer": 0,
      "byteLength": 58928,
      "byteOffset": 176784,
      "byteStride": 8,
      "target": 34962
    },
    {
      "name": "bufferView_2",
      "buffer": 0,
      "byteLength": 26484,
      "byteOffset": 235712,
      "target": 34963
    }
  ],
  "materials": [
    {
      "name": "chrome",
      "pbrMetallicRoughness": {
        "baseColorFactor": [
          0.2353,
          0.2353,
          0.2353,
          1
        ],
        "metallicFactor": 0,
        "roughnessFactor": 0.919
      },
      "emissiveFactor": [
        0,
        0,
        0
      ],
      "alphaMode": "OPAQUE",
      "doubleSided": false
    },
    {
      "name": "02___Default",
      "pbrMetallicRoughness": {
        "baseColorFactor": [
          0.5882,
          0.5882,
          0.5882,
          1
        ],
        "metallicFactor": 0,
        "roughnessFactor": 0.943
      },
      "emissiveFactor": [
        0,
        0,
        0
      ],
      "alphaMode": "OPAQUE",
      "doubleSided": false
    },
    {
      "name": "wire_086086086",
      "pbrMetallicRoughness": {
        "baseColorFactor": [
          0.3373,
          0.3373,
          0.3373,
          1
        ],
        "metallicFactor": 0,
        "roughnessFactor": 0.968
      },
      "emissiveFactor": [
        0,
        0,
        0
      ],
      "alphaMode": "OPAQUE",
      "doubleSided": false
    }
  ],
  "meshes": [
    {
      "name": "press_screw_front_1",
      "primitives": [
        {
          "attributes": {
            "POSITION": 0,
            "NORMAL": 1,
            "TEXCOORD_0": 2
          },
          "indices": 3,
          "material": 0,
          "mode": 4
        }
      ]
    },
    {
      "name": "press_screw_front_02_1",
      "primitives": [
        {
          "attributes": {
            "POSITION": 4,
            "NORMAL": 5,
            "TEXCOORD_0": 6
          },
          "indices": 7,
          "material": 1,
          "mode": 4
        }
      ]
    },
    {
      "name": "press_screw_front_01_1",
      "primitives": [
        {
          "attributes": {
            "POSITION": 8,
            "NORMAL": 9,
            "TEXCOORD_0": 10
          },
          "indices": 11,
          "material": 2,
          "mode": 4
        }
      ]
    }
  ],
  "nodes": [
    {
      "name": "press_screw_front",
      "mesh": 0
    },
    {
      "name": "press_screw_front_02",
      "mesh": 1
    },
    {
      "name": "press_screw_front_01",
      "mesh": 2
    }
  ],
  "scene": 0,
  "scenes": [
    {
      "nodes": [
        0,
        1,
        2
      ]
    }
  ]
}
