{
  "accessors": [
    {
      "name": "spoon_1_positions",
      "componentType": 5126,
      "count": 450,
      "min": [
        -33.0182991027832,
        -2.3206000328063965,
        -4.445000171661377
      ],
      "max": [
        33.0182991027832,
        2.3206000328063965,
        4.445099830627441
      ],
      "type": "VEC3",
      "bufferView": 0,
      "byteOffset": 0
    },
    {
      "name": "spoon_1_normals",
      "componentType": 5126,
      "count": 450,
      "min": [
        -0.9998000264167786,
        -0.9994999766349792,
        -0.9932000041007996
      ],
      "max": [
        1,
        1,
        0.9951000213623047
      ],
      "type": "VEC3",
      "bufferView": 0,
      "byteOffset": 5400
    },
    {
      "name": "spoon_1_texcoords",
      "componentType": 5126,
      "count": 450,
      "min": [
        0,
        0
      ],
      "max": [
        1,
        1
      ],
      "type": "VEC2",
      "bufferView": 1,
      "byteOffset": 0
    },
    {
      "name": "spoon_1_0_indices",
      "componentType": 5123,
      "count": 2016,
      "min": [
        0
      ],
      "max": [
        449
      ],
      "type": "SCALAR",
      "bufferView": 2,
      "byteOffset": 0
    }
  ],
  "asset": {
    "generator": "obj2gltf",
    "version": "2.0"
  },
  "buffers": [
    {
      "name": "spoon",
      "byteLength": 18432,
      "uri": "data:application/octet-stream;base64,"
    }
  ],
  "bufferViews": [
    {
      "name": "bufferView_0",
      "buffer": 0,
      "byteLength": 10800,
      "byteOffset": 0,
      "byteStride": 12,
      "target": 34962
    },
    {
      "name": "bufferView_1",
      "buffer": 0,
      "byteLength": 3600,
      "byteOffset": 10800,
      "byteStride": 8,
      "target": 34962
    },
    {
      "name": "bufferView_2",
      "buffer": 0,
      "byteLength": 4032,
      "byteOffset": 14400,
      "target": 34963
    }
  ],
  "materials": [
    {
      "name": "02___Default",
      "pbrMetallicRoughness": {
        "baseColorFactor": [
          0.5882,
          0.5882,
          0.5882,
          1
        ],
        "metallicFactor": 0,
        "roughnessFactor": 0.943
      },
      "emissiveFactor": [
        0,
        0,
        0
      ],
      "alphaMode": "OPAQUE",
      "doubleSided": false
    }
  ],
  "meshes": [
    {
      "name": "spoon_1",
      "primitives": [
        {
          "attributes": {
            "POSITION": 0,
            "NORMAL": 1,
            "TEXCOORD_0": 2
          },
          "indices": 3,
          "material": 0,
          "mode": 4
        }
      ]
    }
  ],
  "nodes": [
    {
      "name": "spoon",
      "mesh": 0
    }
  ],
  "scene": 0,
  "scenes": [
    {
      "nodes": [
        0
      ]
    }
  ]
}
