{
  "accessors": [
    {
      "name": "Plane001_1_positions",
      "componentType": 5126,
      "count": 1197,
      "min": [
        -29.050800323486328,
        -1.9327000379562378,
        -2.033900022506714
      ],
      "max": [
        -15.42140007019043,
        0.0215000007301569,
        3.114799976348877
      ],
      "type": "VEC3",
      "bufferView": 0,
      "byteOffset": 0
    },
    {
      "name": "Plane001_1_normals",
      "componentType": 5126,
      "count": 1197,
      "min": [
        -0.9958999752998352,
        -1,
        -0.9945999979972839
      ],
      "max": [
        0.9976000189781189,
        1,
        0.9943000078201294
      ],
      "type": "VEC3",
      "bufferView": 0,
      "byteOffset": 14364
    },
    {
      "name": "Plane001_1_texcoords",
      "componentType": 5126,
      "count": 1197,
      "min": [
        0.4399999976158142,
        0.2800000011920929
      ],
      "max": [
        0.7799999713897705,
        0.9200000166893005
      ],
      "type": "VEC2",
      "bufferView": 1,
      "byteOffset": 0
    },
    {
      "name": "Plane001_1_0_indices",
      "componentType": 5123,
      "count": 4314,
      "min": [
        0
      ],
      "max": [
        1196
      ],
      "type": "SCALAR",
      "bufferView": 2,
      "byteOffset": 0
    }
  ],
  "asset": {
    "generator": "obj2gltf",
    "version": "2.0"
  },
  "buffers": [
    {
      "name": "sample_on-spoon",
      "byteLength": 46932,
      "uri": "data:application/octet-stream;base64,"
    }
  ],
  "bufferViews": [
    {
      "name": "bufferView_0",
      "buffer": 0,
      "byteLength": 28728,
      "byteOffset": 0,
      "byteStride": 12,
      "target": 34962
    },
    {
      "name": "bufferView_1",
      "buffer": 0,
      "byteLength": 9576,
      "byteOffset": 28728,
      "byteStride": 8,
      "target": 34962
    },
    {
      "name": "bufferView_2",
      "buffer": 0,
      "byteLength": 8628,
      "byteOffset": 38304,
      "target": 34963
    }
  ],
  "materials": [
    {
      "name": "09___Default",
      "pbrMetallicRoughness": {
        "baseColorFactor": [
          0.6,
          0.6,
          0.6,
          1
        ],
        "metallicFactor": 0,
        "roughnessFactor": 0.99
      },
      "emissiveFactor": [
        0,
        0,
        0
      ],
      "alphaMode": "OPAQUE",
      "doubleSided": false
    }
  ],
  "meshes": [
    {
      "name": "Plane001_1",
      "primitives": [
        {
          "attributes": {
            "POSITION": 0,
            "NORMAL": 1,
            "TEXCOORD_0": 2
          },
          "indices": 3,
          "material": 0,
          "mode": 4
        }
      ]
    }
  ],
  "nodes": [
    {
      "name": "Plane001",
      "mesh": 0
    }
  ],
  "scene": 0,
  "scenes": [
    {
      "nodes": [
        0
      ]
    }
  ]
}
