# 3ds Max Wavefront OBJ Exporter v0.97b - (c)2007 guruware
# 创建的文件:03.02.2019 22:59:32

mtllib press_pointer.mtl

#
# object press_pointer
#

v  -1.1023 -0.3779 -0.0385
v  -1.1023 -0.6299 -0.0385
v  -1.0358 -0.6299 0.3385
v  -1.0358 -0.3779 0.3385
v  -0.8444 -0.6299 0.6701
v  -0.8444 -0.3779 0.6701
v  -0.5511 -0.6299 0.9162
v  -0.1914 -0.6299 1.0471
v  -0.1914 -0.4927 1.0471
v  -0.5621 -0.4927 0.9070
v  -0.5731 -0.3779 0.8977
v  0.1915 -0.4927 1.0471
v  0.1915 -0.6299 1.0471
v  0.5512 -0.6299 0.9162
v  0.5622 -0.4927 0.9070
v  0.8445 -0.6299 0.6701
v  0.8445 -0.3779 0.6701
v  0.5732 -0.3779 0.8977
v  1.0359 -0.6299 0.3385
v  1.0359 -0.3779 0.3385
v  1.1024 -0.3779 -0.0385
v  1.1024 -0.6299 -0.0385
v  1.0359 -0.3779 -0.4155
v  1.0359 -0.6299 -0.4155
v  0.8445 -0.6299 -0.7471
v  0.8445 -0.3779 -0.7471
v  0.5512 -0.6299 -0.9932
v  0.1915 -0.6299 -1.1241
v  0.1915 -0.4927 -1.1241
v  0.5512 -0.4927 -0.9932
v  -0.5511 -0.4927 -0.9932
v  -0.1914 -0.4927 -1.1241
v  -0.1914 -0.6299 -1.1241
v  -0.5511 -0.6299 -0.9932
v  -0.8193 -0.4927 -0.7681
v  -0.8444 -0.6299 -0.7471
v  -0.8444 -0.3779 -0.7471
v  -0.8193 -0.3779 -0.7681
v  -1.0358 -0.6299 -0.4155
v  -1.0358 -0.3779 -0.4155
v  -1.1023 -0.1259 -0.0385
v  -1.0358 -0.1259 0.3385
v  -0.8444 -0.1259 0.6701
v  -0.5731 -0.1259 0.8977
v  1.0359 -0.1259 0.3385
v  0.8445 -0.1259 0.6701
v  1.1024 -0.1259 -0.0385
v  1.0359 -0.1259 -0.4155
v  0.8445 -0.1259 -0.7471
v  0.8195 -0.3779 -0.7681
v  0.8195 -0.1259 -0.7681
v  -0.8444 -0.1259 -0.7471
v  -0.8193 -0.1259 -0.7681
v  -1.0358 -0.1259 -0.4155
v  -1.0358 0.1261 0.3385
v  -1.1023 0.1261 -0.0385
v  -0.8444 0.1261 0.6701
v  -0.5731 0.1261 0.8977
v  0.5732 -0.1259 0.8977
v  0.8445 0.1261 0.6701
v  0.5732 0.1261 0.8977
v  1.0359 0.1261 0.3385
v  1.1024 0.1261 -0.0385
v  1.0359 0.1261 -0.4155
v  0.8445 0.1261 -0.7471
v  0.8195 0.1261 -0.7681
v  -0.8444 0.1261 -0.7471
v  -0.8193 0.1261 -0.7681
v  -1.0358 0.1261 -0.4155
v  -1.0358 0.3780 0.3385
v  -1.1023 0.3780 -0.0385
v  -0.8444 0.3780 0.6701
v  -0.5731 0.3780 0.8977
v  1.0359 0.3780 0.3385
v  0.8445 0.3780 0.6701
v  1.1024 0.3780 -0.0385
v  1.0359 0.3780 -0.4155
v  0.8445 0.3780 -0.7471
v  0.8195 0.3780 -0.7681
v  -0.8444 0.3780 -0.7471
v  -0.8193 0.3780 -0.7681
v  -1.0358 0.3780 -0.4155
v  -1.1023 0.6300 -0.0385
v  -1.0358 0.6300 0.3385
v  -0.8444 0.6300 0.6701
v  -0.5621 0.4522 0.9070
v  -0.5511 0.6300 0.9162
v  -0.1914 0.4522 1.0471
v  -0.1914 0.6300 1.0471
v  0.1915 0.6300 1.0471
v  0.1915 0.4522 1.0471
v  0.8445 0.6300 0.6701
v  0.5622 0.4522 0.9070
v  0.5732 0.3780 0.8977
v  0.5512 0.6300 0.9162
v  1.0359 0.6300 0.3385
v  1.1024 0.6300 -0.0385
v  1.0359 0.6300 -0.4155
v  0.8445 0.6300 -0.7471
v  0.8195 0.4522 -0.7681
v  0.5512 0.4522 -0.9932
v  0.5512 0.6300 -0.9932
v  0.1915 0.4522 -1.1241
v  0.1915 0.6300 -1.1241
v  -0.1914 0.4522 -1.1241
v  -0.1914 0.6300 -1.1241
v  -0.5511 0.6300 -0.9932
v  -0.5511 0.4522 -0.9932
v  -1.0358 0.6300 -0.4155
v  -0.8444 0.6300 -0.7471
v  0.8195 -0.4927 -0.7681
v  -0.8193 0.4522 -0.7681
v  0.0001 -0.4927 2.3413
v  0.0001 0.4522 2.3413
v  0.0001 0.4522 -5.5327
v  0.0001 -0.4927 -5.5327
# 116 vertices

vn -1.0000 0.0000 -0.0000
vn -0.9397 0.0000 0.3420
vn -0.7660 0.0000 0.6428
vn -0.4901 0.0193 0.8715
vn -0.1784 0.0039 0.9839
vn -0.1797 0.0000 0.9837
vn -0.5544 0.0090 0.8322
vn -0.6428 0.0000 0.7660
vn 0.1750 0.0038 0.9846
vn 0.1736 0.0000 0.9848
vn 0.4947 0.0148 0.8690
vn 0.5570 0.0112 0.8305
vn 0.7660 0.0000 0.6428
vn 0.6428 0.0000 0.7660
vn 0.9397 0.0000 0.3420
vn 1.0000 0.0000 -0.0000
vn 0.9397 0.0000 -0.3420
vn 0.7660 0.0000 -0.6428
vn 0.5000 0.0000 -0.8660
vn 0.1736 0.0000 -0.9848
vn -0.5000 0.0000 -0.8660
vn -0.1736 0.0000 -0.9848
vn -0.6428 0.0000 -0.7660
vn -0.7660 0.0000 -0.6428
vn -0.9397 0.0000 -0.3420
vn 0.6428 0.0000 -0.7660
vn -0.5518 -0.0066 0.8340
vn -0.4924 -0.0147 0.8703
vn -0.1781 -0.0038 0.9840
vn 0.1753 -0.0037 0.9845
vn 0.5542 -0.0089 0.8323
vn 0.4965 -0.0104 0.8680
vn 0.0000 -1.0000 -0.0000
vn 0.0000 1.0000 -0.0000
vn 0.8129 -0.4874 0.3186
vn 0.0000 -0.5464 0.8375
vn -0.9298 -0.0273 0.3670
vn -0.8129 -0.4874 0.3186
vn -0.9294 0.0000 0.3690
vn 0.0000 0.5463 0.8376
vn -0.8070 0.4988 0.3163
vn -0.9293 0.0420 0.3668
vn 0.9855 0.0000 -0.1695
vn -0.9855 0.0000 -0.1695
vn 0.9298 -0.0273 0.3670
vn 0.9294 0.0000 0.3690
vn 0.8070 0.4988 0.3163
vn 0.9293 0.0420 0.3668
# 48 vertex normals

vt 0.7500 0.2000 1.0000
vt 0.7500 0.0000 1.0000
vt 0.8056 0.0000 1.0000
vt 0.8056 0.2000 1.0000
vt 0.8611 0.0000 1.0000
vt 0.8611 0.2000 1.0000
vt 0.9167 0.0000 1.0000
vt 0.9722 0.0000 1.0000
vt 0.9722 0.1089 1.0000
vt 0.9167 0.1089 1.0000
vt 0.9125 0.2000 1.0000
vt 0.0278 0.1089 1.0000
vt 0.0278 0.0000 1.0000
vt 0.0833 0.0000 1.0000
vt 0.0875 0.1089 1.0000
vt 0.1389 0.0000 1.0000
vt 0.1389 0.2000 1.0000
vt 0.0875 0.2000 1.0000
vt 0.1944 0.0000 1.0000
vt 0.1944 0.2000 1.0000
vt 0.2500 0.2000 1.0000
vt 0.2500 0.0000 1.0000
vt 0.3056 0.2000 1.0000
vt 0.3056 0.0000 1.0000
vt 0.3611 0.0000 1.0000
vt 0.3611 0.2000 1.0000
vt 0.4167 0.0000 1.0000
vt 0.4722 0.0000 1.0000
vt 0.4722 0.1089 1.0000
vt 0.4167 0.1089 1.0000
vt 0.5833 0.1089 1.0000
vt 0.5278 0.1089 1.0000
vt 0.5278 0.0000 1.0000
vt 0.5833 0.0000 1.0000
vt 0.6341 0.1089 1.0000
vt 0.6389 0.0000 1.0000
vt 0.6389 0.2000 1.0000
vt 0.6341 0.2000 1.0000
vt 0.6944 0.0000 1.0000
vt 0.6944 0.2000 1.0000
vt 0.7500 0.4000 1.0000
vt 0.8056 0.4000 1.0000
vt 0.8611 0.4000 1.0000
vt 0.9125 0.4000 1.0000
vt 0.1944 0.4000 1.0000
vt 0.1389 0.4000 1.0000
vt 0.2500 0.4000 1.0000
vt 0.3056 0.4000 1.0000
vt 0.3611 0.4000 1.0000
vt 0.3659 0.2000 1.0000
vt 0.3659 0.4000 1.0000
vt 0.6389 0.4000 1.0000
vt 0.6341 0.4000 1.0000
vt 0.6944 0.4000 1.0000
vt 0.8056 0.6000 1.0000
vt 0.7500 0.6000 1.0000
vt 0.8611 0.6000 1.0000
vt 0.9125 0.6000 1.0000
vt 0.0875 0.4000 1.0000
vt 0.1389 0.6000 1.0000
vt 0.0875 0.6000 1.0000
vt 0.1944 0.6000 1.0000
vt 0.2500 0.6000 1.0000
vt 0.3056 0.6000 1.0000
vt 0.3611 0.6000 1.0000
vt 0.3659 0.6000 1.0000
vt 0.6389 0.6000 1.0000
vt 0.6341 0.6000 1.0000
vt 0.6944 0.6000 1.0000
vt 0.8056 0.8000 1.0000
vt 0.7500 0.8000 1.0000
vt 0.8611 0.8000 1.0000
vt 0.9125 0.8000 1.0000
vt 0.1944 0.8000 1.0000
vt 0.1389 0.8000 1.0000
vt 0.2500 0.8000 1.0000
vt 0.3056 0.8000 1.0000
vt 0.3611 0.8000 1.0000
vt 0.3659 0.8000 1.0000
vt 0.6389 0.8000 1.0000
vt 0.6341 0.8000 1.0000
vt 0.6944 0.8000 1.0000
vt 0.7500 1.0000 1.0000
vt 0.8056 1.0000 1.0000
vt 0.8611 1.0000 1.0000
vt 0.9125 0.8589 1.0000
vt 0.9167 1.0000 1.0000
vt 0.9722 0.8589 1.0000
vt 0.9722 1.0000 1.0000
vt 1.0278 1.0000 1.0000
vt 1.0278 0.8589 1.0000
vt 0.1389 1.0000 1.0000
vt 0.0833 0.8589 1.0000
vt 0.0875 0.8000 1.0000
vt 0.0833 1.0000 1.0000
vt 0.0278 0.8589 1.0000
vt 0.0278 1.0000 1.0000
vt 0.1944 1.0000 1.0000
vt 0.2500 1.0000 1.0000
vt 0.3056 1.0000 1.0000
vt 0.3611 1.0000 1.0000
vt 0.3659 0.8589 1.0000
vt 0.4167 0.8589 1.0000
vt 0.4167 1.0000 1.0000
vt 0.4722 0.8589 1.0000
vt 0.4722 1.0000 1.0000
vt 0.5278 0.8589 1.0000
vt 0.5278 1.0000 1.0000
vt 0.5833 1.0000 1.0000
vt 0.5833 0.8589 1.0000
vt 0.6944 1.0000 1.0000
vt 0.6389 1.0000 1.0000
vt 0.9924 0.5868 -0.2500
vt 0.5000 1.0000 -0.2500
vt 0.8214 0.8830 -0.2500
vt 0.9330 0.7500 -0.2500
vt 0.9924 0.4132 -0.2500
vt 0.9330 0.2500 -0.2500
vt 0.6710 0.0302 -0.2500
vt 0.8214 0.1170 -0.2500
vt 0.5000 0.0000 -0.2500
vt 0.3290 0.0302 -0.2500
vt 0.0670 0.2500 -0.2500
vt 0.1786 0.1170 -0.2500
vt 0.0076 0.5868 -0.2500
vt 0.1786 0.8830 -0.2500
vt 0.0076 0.4132 -0.2500
vt 0.0670 0.7500 -0.2500
vt 0.3290 0.9698 -0.2500
vt 0.6710 0.9698 -0.2500
vt 0.3290 0.9698 0.2500
vt 0.1786 0.8830 0.2500
vt 0.0670 0.7500 0.2500
vt 0.6710 0.9698 0.2500
vt 0.0076 0.5868 0.2500
vt 0.0076 0.4132 0.2500
vt 0.1786 0.1170 0.2500
vt 0.0670 0.2500 0.2500
vt 0.5000 0.0000 0.2500
vt 0.8214 0.1170 0.2500
vt 0.3290 0.0302 0.2500
vt 0.6710 0.0302 0.2500
vt 0.9924 0.4132 0.2500
vt 0.9330 0.7500 0.2500
vt 0.9330 0.2500 0.2500
vt 0.9924 0.5868 0.2500
vt 0.8214 0.8830 0.2500
vt 0.5000 1.0000 0.2500
vt 0.3659 0.1089 1.0000
vt 0.6341 0.8589 1.0000
vt 1.0278 0.0000 1.0000
vt 1.0278 0.1089 1.0000
vt -0.2393 1.3570 0.1715
vt -0.6890 1.1933 0.1715
vt -0.0000 2.9748 0.1715
vt 0.2393 1.3570 0.1715
vt 0.7164 1.1703 0.3150
vt 0.7164 1.1703 0.1715
vt 0.7164 1.1703 0.9449
vt -0.0000 2.9748 1.3526
vt 0.6890 1.1933 1.3526
vt 0.7164 1.1703 1.2598
vt 0.7164 1.1703 0.6299
vt -1.0243 -0.9120 1.2598
vt -1.0243 -0.9120 0.9449
vt 0.0000 -6.8678 1.3526
vt -1.0243 -0.9120 1.3526
vt -1.0243 -0.9120 0.6299
vt -1.0243 -0.9120 0.3150
vt -1.0243 -0.9120 0.1715
vt 0.0000 -6.8678 0.1715
vt 1.0243 -0.9120 0.3150
vt 1.0243 -0.9120 0.1715
vt 1.0243 -0.9120 0.9449
vt 1.0243 -0.9120 1.2598
vt 1.0243 -0.9120 1.3526
vt 1.0243 -0.9120 0.6299
vt 0.6890 -1.1933 0.1715
vt 0.2393 -1.3570 0.1715
vt -0.6890 -1.1933 0.1715
vt -0.2393 -1.3570 0.1715
vt -0.7164 1.1703 0.3150
vt -0.7164 1.1703 0.6299
vt -0.7164 1.1703 0.9449
vt -0.7164 1.1703 1.3526
vt -0.7164 1.1703 1.2598
vt -0.2393 1.3570 1.3526
vt 0.2393 1.3570 1.3526
vt 0.6890 -1.1933 1.3526
vt 0.2393 -1.3570 1.3526
vt -0.2393 -1.3570 1.3526
vt -0.6890 -1.1933 1.3526
# 192 texture coords

g press_pointer
usemtl handle
s 8
f 1/1/1 2/2/1 3/3/2 4/4/2 
f 4/4/2 3/3/2 5/5/3 6/6/3 
f 7/7/4 8/8/5 9/9/6 10/10/7 
f 6/6/3 5/5/3 10/10/7 11/11/8 
f 7/7/4 10/10/7 5/5/3 
f 12/12/9 13/13/10 14/14/11 15/15/12 
f 16/16/13 17/17/13 15/15/12 14/14/11 
f 15/15/12 17/17/13 18/18/14 
f 17/17/13 16/16/13 19/19/15 20/20/15 
f 21/21/16 20/20/15 19/19/15 22/22/16 
f 23/23/17 21/21/16 22/22/16 24/24/17 
f 24/24/17 25/25/18 26/26/18 23/23/17 
f 27/27/19 28/28/20 29/29/20 30/30/19 
f 31/31/21 32/32/22 33/33/22 34/34/21 
f 35/35/23 31/31/21 34/34/21 36/36/24 
f 37/37/24 38/38/23 35/35/23 36/36/24 
f 37/37/24 36/36/24 39/39/25 40/40/25 
f 39/39/25 2/2/1 1/1/1 40/40/25 
f 41/41/1 1/1/1 4/4/2 42/42/2 
f 42/42/2 4/4/2 6/6/3 43/43/3 
f 11/11/8 44/44/8 43/43/3 6/6/3 
f 17/17/13 20/20/15 45/45/15 46/46/13 
f 47/47/16 45/45/15 20/20/15 21/21/16 
f 48/48/17 47/47/16 21/21/16 23/23/17 
f 48/48/17 23/23/17 26/26/18 49/49/18 
f 50/50/26 51/51/26 49/49/18 26/26/18 
f 37/37/24 52/52/24 53/53/23 38/38/23 
f 37/37/24 40/40/25 54/54/25 52/52/24 
f 41/41/1 54/54/25 40/40/25 1/1/1 
f 42/42/2 55/55/2 56/56/1 41/41/1 
f 42/42/2 43/43/3 57/57/3 55/55/2 
f 44/44/8 58/58/8 57/57/3 43/43/3 
f 59/59/14 46/46/13 60/60/13 61/61/14 
f 60/60/13 46/46/13 45/45/15 62/62/15 
f 63/63/16 62/62/15 45/45/15 47/47/16 
f 64/64/17 63/63/16 47/47/16 48/48/17 
f 64/64/17 48/48/17 49/49/18 65/65/18 
f 66/66/26 65/65/18 49/49/18 51/51/26 
f 67/67/24 68/68/23 53/53/23 52/52/24 
f 67/67/24 52/52/24 54/54/25 69/69/25 
f 54/54/25 41/41/1 56/56/1 69/69/25 
f 55/55/2 70/70/2 71/71/1 56/56/1 
f 70/70/2 55/55/2 57/57/3 72/72/3 
f 73/73/8 72/72/3 57/57/3 58/58/8 
f 62/62/15 74/74/15 75/75/13 60/60/13 
f 62/62/15 63/63/16 76/76/16 74/74/15 
f 76/76/16 63/63/16 64/64/17 77/77/17 
f 65/65/18 78/78/18 77/77/17 64/64/17 
f 65/65/18 66/66/26 79/79/26 78/78/18 
f 80/80/24 81/81/23 68/68/23 67/67/24 
f 67/67/24 69/69/25 82/82/25 80/80/24 
f 69/69/25 56/56/1 71/71/1 82/82/25 
f 83/83/1 71/71/1 70/70/2 84/84/2 
f 85/85/3 84/84/2 70/70/2 72/72/3 
f 72/72/3 73/73/8 86/86/27 85/85/3 
f 86/86/27 87/87/28 85/85/3 
f 87/87/28 86/86/27 88/88/6 89/89/29 
f 90/90/10 89/89/29 88/88/6 91/91/30 
f 75/75/13 92/92/13 93/93/31 94/94/14 
f 95/95/32 91/96/30 93/93/31 92/92/13 
f 95/95/32 90/97/10 91/96/30 
f 96/98/15 92/92/13 75/75/13 74/74/15 
f 76/76/16 97/99/16 96/98/15 74/74/15 
f 77/77/17 98/100/17 97/99/16 76/76/16 
f 98/100/17 77/77/17 78/78/18 99/101/18 
f 100/102/26 99/101/18 78/78/18 79/79/26 
f 100/102/26 101/103/19 102/104/19 99/101/18 
f 103/105/20 104/106/20 102/104/19 101/103/19 
f 104/106/20 103/105/20 105/107/22 106/108/22 
f 107/109/21 106/108/22 105/107/22 108/110/21 
f 82/82/25 109/111/25 110/112/24 80/80/24 
f 82/82/25 71/71/1 83/83/1 109/111/25 
s 1
f 33/113/33 2/114/33 36/115/33 34/116/33 
f 33/113/33 28/117/33 27/118/33 24/119/33 
f 27/118/33 25/120/33 24/119/33 
f 24/119/33 22/121/33 19/122/33 14/123/33 
f 19/122/33 16/124/33 14/123/33 
f 8/125/33 5/126/33 14/123/33 13/127/33 
f 8/125/33 7/128/33 5/126/33 
f 5/126/33 33/113/33 24/119/33 14/123/33 
f 2/114/33 33/113/33 5/126/33 3/129/33 
f 39/130/33 36/115/33 2/114/33 
f 84/131/34 85/132/34 87/133/34 109/134/34 
f 87/133/34 89/135/34 90/136/34 92/137/34 
f 90/136/34 95/138/34 92/137/34 
f 97/139/34 99/140/34 92/137/34 96/141/34 
f 97/139/34 98/142/34 99/140/34 
f 104/143/34 107/144/34 99/140/34 102/145/34 
f 104/143/34 106/146/34 107/144/34 
f 107/144/34 87/133/34 92/137/34 99/140/34 
f 107/144/34 110/147/34 109/134/34 87/133/34 
f 83/148/34 84/131/34 109/134/34 
s 8
f 46/46/13 59/59/14 18/18/14 17/17/13 
f 61/61/14 60/60/13 75/75/13 94/94/14 
f 111/149/26 50/50/26 26/26/18 25/25/18 
f 111/149/26 25/25/18 27/27/19 30/30/19 
f 112/150/23 81/81/23 80/80/24 110/112/24 
f 107/109/21 108/110/21 112/150/23 110/112/24 
f 9/9/6 8/8/5 13/151/10 12/152/9 
f 29/29/20 28/28/20 33/33/22 32/32/22 
s 17
f 12/153/33 15/154/35 113/155/36 9/156/33 
f 11/157/37 10/158/38 9/156/33 113/155/36 
f 58/159/39 114/160/40 86/161/41 73/162/42 
f 44/163/39 11/157/37 114/160/40 58/159/39 
f 113/155/36 114/160/40 11/157/37 
s 2
f 79/164/43 66/165/43 115/166/43 100/167/43 
f 51/168/43 50/169/43 115/166/43 66/165/43 
f 50/169/43 111/170/43 116/171/43 115/166/43 
s 4
f 38/172/44 115/166/44 116/171/44 35/173/44 
f 115/166/44 68/174/44 81/175/44 112/176/44 
f 115/166/44 38/172/44 53/177/44 68/174/44 
s 16
f 31/178/33 35/173/33 116/171/33 32/179/33 
f 116/171/33 30/180/33 29/181/33 32/179/33 
f 30/180/33 116/171/33 111/170/33 
s 20
f 113/155/36 15/154/35 18/182/45 114/160/40 
f 59/183/46 61/184/46 114/160/40 18/182/45 
f 93/185/47 114/160/40 61/184/46 94/186/48 
f 91/187/34 88/188/34 114/160/40 93/185/47 
f 114/160/40 88/188/34 86/161/41 
s 16
f 115/166/34 112/176/34 108/189/34 105/190/34 
f 115/166/34 105/190/34 103/191/34 101/192/34 
f 100/167/34 115/166/34 101/192/34 
# 106 polygons - 16 triangles

