{
  "accessors": [
    {
      "name": "press_pointer_1_positions",
      "componentType": 5126,
      "count": 200,
      "min": [
        -1.1023000478744507,
        -0.6298999786376953,
        -5.532700061798096
      ],
      "max": [
        1.1023999452590942,
        0.6299999952316284,
        2.3413000106811523
      ],
      "type": "VEC3",
      "bufferView": 0,
      "byteOffset": 0
    },
    {
      "name": "press_pointer_1_normals",
      "componentType": 5126,
      "count": 200,
      "min": [
        -1,
        -1,
        -0.9847999811172485
      ],
      "max": [
        1,
        1,
        0.9847999811172485
      ],
      "type": "VEC3",
      "bufferView": 0,
      "byteOffset": 2400
    },
    {
      "name": "press_pointer_1_texcoords",
      "componentType": 5126,
      "count": 200,
      "min": [
        -1.0242999792099,
        -1.9747999906539917
      ],
      "max": [
        1.0277999639511108,
        7.867800235748291
      ],
      "type": "VEC2",
      "bufferView": 1,
      "byteOffset": 0
    },
    {
      "name": "press_pointer_1_0_indices",
      "componentType": 5123,
      "count": 684,
      "min": [
        0
      ],
      "max": [
        199
      ],
      "type": "SCALAR",
      "bufferView": 2,
      "byteOffset": 0
    }
  ],
  "asset": {
    "generator": "obj2gltf",
    "version": "2.0"
  },
  "buffers": [
    {
      "name": "press_pointer",
      "byteLength": 7768,
      "uri": "data:application/octet-stream;base64,"
    }
  ],
  "bufferViews": [
    {
      "name": "bufferView_0",
      "buffer": 0,
      "byteLength": 4800,
      "byteOffset": 0,
      "byteStride": 12,
      "target": 34962
    },
    {
      "name": "bufferView_1",
      "buffer": 0,
      "byteLength": 1600,
      "byteOffset": 4800,
      "byteStride": 8,
      "target": 34962
    },
    {
      "name": "bufferView_2",
      "buffer": 0,
      "byteLength": 1368,
      "byteOffset": 6400,
      "target": 34963
    }
  ],
  "materials": [
    {
      "name": "handle",
      "pbrMetallicRoughness": {
        "baseColorFactor": [
          0.2329,
          0.2329,
          0.2329,
          1
        ],
        "metallicFactor": 0,
        "roughnessFactor": 0.919
      },
      "emissiveFactor": [
        0,
        0,
        0
      ],
      "alphaMode": "OPAQUE",
      "doubleSided": false
    }
  ],
  "meshes": [
    {
      "name": "press_pointer_1",
      "primitives": [
        {
          "attributes": {
            "POSITION": 0,
            "NORMAL": 1,
            "TEXCOORD_0": 2
          },
          "indices": 3,
          "material": 0,
          "mode": 4
        }
      ]
    }
  ],
  "nodes": [
    {
      "name": "press_pointer",
      "mesh": 0
    }
  ],
  "scene": 0,
  "scenes": [
    {
      "nodes": [
        0
      ]
    }
  ]
}
