{
  "accessors": [
    {
      "name": "beaker_1_positions",
      "componentType": 5126,
      "count": 11178,
      "min": [
        -10.838700294494629,
        -14.000399589538574,
        -12.559800148010254
      ],
      "max": [
        10.839099884033203,
        13.978400230407715,
        12.472900390625
      ],
      "type": "VEC3",
      "bufferView": 0,
      "byteOffset": 0
    },
    {
      "name": "beaker_1_normals",
      "componentType": 5126,
      "count": 11178,
      "min": [
        -1,
        -1,
        -1
      ],
      "max": [
        1,
        1,
        1
      ],
      "type": "VEC3",
      "bufferView": 0,
      "byteOffset": 196884
    },
    {
      "name": "beaker_1_texcoords",
      "componentType": 5126,
      "count": 11178,
      "min": [
        -0.027799999341368675,
        0
      ],
      "max": [
        1,
        1
      ],
      "type": "VEC2",
      "bufferView": 1,
      "byteOffset": 0
    },
    {
      "name": "beaker_1_0_indices",
      "componentType": 5123,
      "count": 65664,
      "min": [
        0
      ],
      "max": [
        11177
      ],
      "type": "SCALAR",
      "bufferView": 2,
      "byteOffset": 0
    },
    {
      "name": "Line004_1_positions",
      "componentType": 5126,
      "count": 228,
      "min": [
        6.155399799346924,
        -4.07859992980957,
        -9.306500434875488
      ],
      "max": [
        10.223199844360352,
        4.07859992980957,
        5.648200035095215
      ],
      "type": "VEC3",
      "bufferView": 0,
      "byteOffset": 134136
    },
    {
      "name": "Line004_1_normals",
      "componentType": 5126,
      "count": 228,
      "min": [
        -1,
        -1,
        -1
      ],
      "max": [
        1,
        1,
        1
      ],
      "type": "VEC3",
      "bufferView": 0,
      "byteOffset": 331020
    },
    {
      "name": "Line004_1_texcoords",
      "componentType": 5126,
      "count": 228,
      "min": [
        -9.842499732971191,
        -6.874000072479248
      ],
      "max": [
        1.968500018119812,
        14.779500007629395
      ],
      "type": "VEC2",
      "bufferView": 1,
      "byteOffset": 89424
    },
    {
      "name": "Line004_1_0_indices",
      "componentType": 5123,
      "count": 624,
      "min": [
        0
      ],
      "max": [
        227
      ],
      "type": "SCALAR",
      "bufferView": 2,
      "byteOffset": 131328
    },
    {
      "name": "Line008_1_positions",
      "componentType": 5126,
      "count": 2622,
      "min": [
        7.583000183105469,
        -3.3977999687194824,
        -8.05840015411377
      ],
      "max": [
        10.223199844360352,
        3.3977999687194824,
        4.400199890136719
      ],
      "type": "VEC3",
      "bufferView": 0,
      "byteOffset": 136872
    },
    {
      "name": "Line008_1_normals",
      "componentType": 5126,
      "count": 2622,
      "min": [
        -1,
        -1,
        -1
      ],
      "max": [
        1,
        1,
        1
      ],
      "type": "VEC3",
      "bufferView": 0,
      "byteOffset": 333756
    },
    {
      "name": "Line008_1_texcoords",
      "componentType": 5126,
      "count": 2622,
      "min": [
        -9.842499732971191,
        -6.874000072479248
      ],
      "max": [
        1.968500018119812,
        14.779500007629395
      ],
      "type": "VEC2",
      "bufferView": 1,
      "byteOffset": 91248
    },
    {
      "name": "Line008_1_0_indices",
      "componentType": 5123,
      "count": 6921,
      "min": [
        0
      ],
      "max": [
        2621
      ],
      "type": "SCALAR",
      "bufferView": 2,
      "byteOffset": 132576
    },
    {
      "name": "Text004_1_positions",
      "componentType": 5126,
      "count": 2379,
      "min": [
        8.005200386047363,
        -1.8720999956130981,
        -7.668099880218506
      ],
      "max": [
        10.419300079345703,
        1.8720999956130981,
        4.009900093078613
      ],
      "type": "VEC3",
      "bufferView": 0,
      "byteOffset": 168336
    },
    {
      "name": "Text004_1_normals",
      "componentType": 5126,
      "count": 2379,
      "min": [
        -0.9990000128746033,
        -1,
        -1
      ],
      "max": [
        0.9991000294685364,
        1,
        1
      ],
      "type": "VEC3",
      "bufferView": 0,
      "byteOffset": 365220
    },
    {
      "name": "Text004_1_texcoords",
      "componentType": 5126,
      "count": 2379,
      "min": [
        -8.45460033416748,
        -3.8424999713897705
      ],
      "max": [
        8.45460033416748,
        1.5786999464035034
      ],
      "type": "VEC2",
      "bufferView": 1,
      "byteOffset": 112224
    },
    {
      "name": "Text004_1_0_indices",
      "componentType": 5123,
      "count": 6144,
      "min": [
        0
      ],
      "max": [
        2378
      ],
      "type": "SCALAR",
      "bufferView": 2,
      "byteOffset": 146420
    }
  ],
  "asset": {
    "generator": "obj2gltf",
    "version": "2.0"
  },
  "buffers": [
    {
      "name": "KBr-beaker",
      "byteLength": 683732,
      "uri": "data:application/octet-stream;base64,"
    }
  ],
  "bufferViews": [
    {
      "name": "bufferView_0",
      "buffer": 0,
      "byteLength": 393768,
      "byteOffset": 0,
      "byteStride": 12,
      "target": 34962
    },
    {
      "name": "bufferView_1",
      "buffer": 0,
      "byteLength": 131256,
      "byteOffset": 393768,
      "byteStride": 8,
      "target": 34962
    },
    {
      "name": "bufferView_2",
      "buffer": 0,
      "byteLength": 158708,
      "byteOffset": 525024,
      "target": 34963
    }
  ],
  "materials": [
    {
      "name": "03___Default",
      "pbrMetallicRoughness": {
        "baseColorFactor": [
          1,
          1,
          1,
          1
        ],
        "metallicFactor": 0,
        "roughnessFactor": 1
      },
      "emissiveFactor": [
        0,
        0,
        0
      ],
      "alphaMode": "OPAQUE",
      "doubleSided": false
    },
    {
      "name": "wire_135006006",
      "pbrMetallicRoughness": {
        "baseColorFactor": [
          0.5294,
          0.0235,
          0.0235,
          1
        ],
        "metallicFactor": 0,
        "roughnessFactor": 0.968
      },
      "emissiveFactor": [
        0,
        0,
        0
      ],
      "alphaMode": "OPAQUE",
      "doubleSided": false
    },
    {
      "name": "wire_255255255",
      "pbrMetallicRoughness": {
        "baseColorFactor": [
          1,
          1,
          1,
          1
        ],
        "metallicFactor": 0,
        "roughnessFactor": 0.968
      },
      "emissiveFactor": [
        0,
        0,
        0
      ],
      "alphaMode": "OPAQUE",
      "doubleSided": false
    },
    {
      "name": "wire_000000000",
      "pbrMetallicRoughness": {
        "baseColorFactor": [
          0,
          0,
          0,
          1
        ],
        "metallicFactor": 0,
        "roughnessFactor": 0.968
      },
      "emissiveFactor": [
        0,
        0,
        0
      ],
      "alphaMode": "OPAQUE",
      "doubleSided": false
    }
  ],
  "meshes": [
    {
      "name": "beaker_1",
      "primitives": [
        {
          "attributes": {
            "POSITION": 0,
            "NORMAL": 1,
            "TEXCOORD_0": 2
          },
          "indices": 3,
          "material": 0,
          "mode": 4
        }
      ]
    },
    {
      "name": "Line004_1",
      "primitives": [
        {
          "attributes": {
            "POSITION": 4,
            "NORMAL": 5,
            "TEXCOORD_0": 6
          },
          "indices": 7,
          "material": 1,
          "mode": 4
        }
      ]
    },
    {
      "name": "Line008_1",
      "primitives": [
        {
          "attributes": {
            "POSITION": 8,
            "NORMAL": 9,
            "TEXCOORD_0": 10
          },
          "indices": 11,
          "material": 2,
          "mode": 4
        }
      ]
    },
    {
      "name": "Text004_1",
      "primitives": [
        {
          "attributes": {
            "POSITION": 12,
            "NORMAL": 13,
            "TEXCOORD_0": 14
          },
          "indices": 15,
          "material": 3,
          "mode": 4
        }
      ]
    }
  ],
  "nodes": [
    {
      "name": "beaker",
      "mesh": 0
    },
    {
      "name": "Line004",
      "mesh": 1
    },
    {
      "name": "Line008",
      "mesh": 2
    },
    {
      "name": "Text004",
      "mesh": 3
    }
  ],
  "scene": 0,
  "scenes": [
    {
      "nodes": [
        0,
        1,
        2,
        3
      ]
    }
  ]
}
