{
  "accessors": [
    {
      "name": "KBr_on_KBr_beaker_1_positions",
      "componentType": 5126,
      "count": 4955,
      "min": [
        -9.395899772644043,
        -2.4876999855041504,
        -11.126099586486816
      ],
      "max": [
        9.369199752807617,
        2.1126999855041504,
        7.71999979019165
      ],
      "type": "VEC3",
      "bufferView": 0,
      "byteOffset": 0
    },
    {
      "name": "KBr_on_KBr_beaker_1_normals",
      "componentType": 5126,
      "count": 4955,
      "min": [
        -0.9998000264167786,
        -1,
        -1
      ],
      "max": [
        0.9994999766349792,
        1,
        0.9998000264167786
      ],
      "type": "VEC3",
      "bufferView": 0,
      "byteOffset": 59460
    },
    {
      "name": "KBr_on_KBr_beaker_1_texcoords",
      "componentType": 5126,
      "count": 4955,
      "min": [
        0.07999999821186066,
        0.05999999865889549
      ],
      "max": [
        0.8999999761581421,
        0.8600000143051147
      ],
      "type": "VEC2",
      "bufferView": 1,
      "byteOffset": 0
    },
    {
      "name": "KBr_on_KBr_beaker_1_0_indices",
      "componentType": 5123,
      "count": 21648,
      "min": [
        0
      ],
      "max": [
        4954
      ],
      "type": "SCALAR",
      "bufferView": 2,
      "byteOffset": 0
    }
  ],
  "asset": {
    "generator": "obj2gltf",
    "version": "2.0"
  },
  "buffers": [
    {
      "name": "KBr_on-beaker",
      "byteLength": 201856,
      "uri": "data:application/octet-stream;base64,"
    }
  ],
  "bufferViews": [
    {
      "name": "bufferView_0",
      "buffer": 0,
      "byteLength": 118920,
      "byteOffset": 0,
      "byteStride": 12,
      "target": 34962
    },
    {
      "name": "bufferView_1",
      "buffer": 0,
      "byteLength": 39640,
      "byteOffset": 118920,
      "byteStride": 8,
      "target": 34962
    },
    {
      "name": "bufferView_2",
      "buffer": 0,
      "byteLength": 43296,
      "byteOffset": 158560,
      "target": 34963
    }
  ],
  "materials": [
    {
      "name": "09___Default",
      "pbrMetallicRoughness": {
        "baseColorFactor": [
          1,
          1,
          1,
          1
        ],
        "metallicFactor": 0,
        "roughnessFactor": 0.99
      },
      "emissiveFactor": [
        0,
        0,
        0
      ],
      "alphaMode": "OPAQUE",
      "doubleSided": false
    }
  ],
  "meshes": [
    {
      "name": "KBr_on_KBr_beaker_1",
      "primitives": [
        {
          "attributes": {
            "POSITION": 0,
            "NORMAL": 1,
            "TEXCOORD_0": 2
          },
          "indices": 3,
          "material": 0,
          "mode": 4
        }
      ]
    }
  ],
  "nodes": [
    {
      "name": "KBr_on_KBr_beaker",
      "mesh": 0
    }
  ],
  "scene": 0,
  "scenes": [
    {
      "nodes": [
        0
      ]
    }
  ]
}
