# 3ds Max Wavefront OBJ Exporter v0.97b - (c)2007 guruware
# 创建的文件:27.02.2019 21:15:15

mtllib arrow.mtl

#
# object Box001
#

v  2.9528 12.5930 -2.9528
v  2.9528 -3.1551 -2.9528
v  -2.9528 -3.1551 -2.9528
v  -2.9528 12.5930 -2.9528
v  2.9528 12.5930 2.9528
v  -2.9528 12.5930 2.9528
v  -2.9528 -3.1551 2.9528
v  2.9528 -3.1551 2.9528
v  -0.0000 -12.5930 0.0000
v  7.0702 -3.1660 7.0702
v  -7.0702 -3.1660 7.0702
v  -7.0702 -3.1660 -7.0702
v  7.0702 -3.1660 -7.0702
v  -0.0000 -3.1660 0.0000
# 14 vertices

vn -0.0000 -0.0000 -1.0000
vn 0.0000 0.0000 1.0000
vn 0.0000 1.0000 -0.0000
vn -1.0000 0.0000 -0.0000
vn -0.0000 -1.0000 0.0000
vn 1.0000 -0.0000 -0.0000
vn -0.0000 -0.6000 0.8000
vn -0.8000 -0.6000 0.0000
vn -0.0000 -0.6000 -0.8000
vn 0.8000 -0.6000 0.0000
# 10 vertex normals

vt 1.0000 0.0000 0.0000
vt 1.0000 1.0000 0.0000
vt 0.0000 1.0000 0.0000
vt 0.0000 0.0000 0.0000
vt 0.5000 1.0000 0.0000
vt 0.5000 0.5000 0.0000
# 6 texture coords

g Box001
usemtl wire_148214236
s 2
f 1/1/1 2/2/1 3/3/1 4/4/1 
s 4
f 5/4/2 6/1/2 7/2/2 8/3/2 
s 8
f 1/4/3 4/1/3 6/2/3 5/3/3 
s 16
f 4/4/4 3/1/4 7/2/4 6/3/4 
s 32
f 3/4/5 2/1/5 8/2/5 7/3/5 
s 64
f 2/4/6 1/1/6 5/2/6 8/3/6 
s 4
f 9/5/7 10/4/7 11/1/7 
s 2
f 9/5/8 11/4/8 12/1/8 
s 16
f 9/5/9 12/4/9 13/1/9 
s 32
f 9/5/10 13/4/10 10/1/10 
s 8
f 10/3/3 14/6/3 11/2/3 
f 11/2/3 14/6/3 12/1/3 
f 12/1/3 14/6/3 13/4/3 
f 13/4/3 14/6/3 10/3/3 
# 6 polygons - 8 triangles

