{
  "accessors": [
    {
      "name": "Plane001_1_positions",
      "componentType": 5126,
      "count": 2605,
      "min": [
        -20.38520050048828,
        -2.013400077819824,
        -21.642000198364258
      ],
      "max": [
        23.158000946044922,
        5.991499900817871,
        24.752199172973633
      ],
      "type": "VEC3",
      "bufferView": 0,
      "byteOffset": 0
    },
    {
      "name": "Plane001_1_normals",
      "componentType": 5126,
      "count": 2605,
      "min": [
        -0.9907000064849854,
        -1,
        -0.9704999923706055
      ],
      "max": [
        0.9609000086784363,
        1,
        0.9991999864578247
      ],
      "type": "VEC3",
      "bufferView": 0,
      "byteOffset": 31260
    },
    {
      "name": "Plane001_1_texcoords",
      "componentType": 5126,
      "count": 2605,
      "min": [
        0,
        0.18000000715255737
      ],
      "max": [
        1,
        0.9800000190734863
      ],
      "type": "VEC2",
      "bufferView": 1,
      "byteOffset": 0
    },
    {
      "name": "Plane001_1_0_indices",
      "componentType": 5123,
      "count": 13788,
      "min": [
        0
      ],
      "max": [
        2604
      ],
      "type": "SCALAR",
      "bufferView": 2,
      "byteOffset": 0
    }
  ],
  "asset": {
    "generator": "obj2gltf",
    "version": "2.0"
  },
  "buffers": [
    {
      "name": "product_on-agate_mortar",
      "byteLength": 110936,
      "uri": "data:application/octet-stream;base64,"
    }
  ],
  "bufferViews": [
    {
      "name": "bufferView_0",
      "buffer": 0,
      "byteLength": 62520,
      "byteOffset": 0,
      "byteStride": 12,
      "target": 34962
    },
    {
      "name": "bufferView_1",
      "buffer": 0,
      "byteLength": 20840,
      "byteOffset": 62520,
      "byteStride": 8,
      "target": 34962
    },
    {
      "name": "bufferView_2",
      "buffer": 0,
      "byteLength": 27576,
      "byteOffset": 83360,
      "target": 34963
    }
  ],
  "materials": [
    {
      "name": "09___Default",
      "pbrMetallicRoughness": {
        "baseColorFactor": [
          0.8941,
          0.8941,
          0.8941,
          1
        ],
        "metallicFactor": 0,
        "roughnessFactor": 0.99
      },
      "emissiveFactor": [
        0,
        0,
        0
      ],
      "alphaMode": "OPAQUE",
      "doubleSided": false
    }
  ],
  "meshes": [
    {
      "name": "Plane001_1",
      "primitives": [
        {
          "attributes": {
            "POSITION": 0,
            "NORMAL": 1,
            "TEXCOORD_0": 2
          },
          "indices": 3,
          "material": 0,
          "mode": 4
        }
      ]
    }
  ],
  "nodes": [
    {
      "name": "Plane001",
      "mesh": 0
    }
  ],
  "scene": 0,
  "scenes": [
    {
      "nodes": [
        0
      ]
    }
  ]
}
