{
  "accessors": [
    {
      "name": "Plane001_1_positions",
      "componentType": 5126,
      "count": 1439,
      "min": [
        -24.434499740600586,
        -1.4543999433517456,
        -27.645000457763672
      ],
      "max": [
        23.316499710083008,
        6.124100208282471,
        28.54669952392578
      ],
      "type": "VEC3",
      "bufferView": 0,
      "byteOffset": 0
    },
    {
      "name": "Plane001_1_normals",
      "componentType": 5126,
      "count": 1439,
      "min": [
        -0.9907000064849854,
        -1,
        -0.7315000295639038
      ],
      "max": [
        0.9085000157356262,
        1,
        0.7497000098228455
      ],
      "type": "VEC3",
      "bufferView": 0,
      "byteOffset": 21168
    },
    {
      "name": "Plane001_1_texcoords",
      "componentType": 5126,
      "count": 1439,
      "min": [
        0,
        0.20000000298023224
      ],
      "max": [
        0.6200000047683716,
        0.8799999952316284
      ],
      "type": "VEC2",
      "bufferView": 1,
      "byteOffset": 0
    },
    {
      "name": "Plane001_1_0_indices",
      "componentType": 5123,
      "count": 7719,
      "min": [
        0
      ],
      "max": [
        1438
      ],
      "type": "SCALAR",
      "bufferView": 2,
      "byteOffset": 0
    },
    {
      "name": "agate_mortar_1_positions",
      "componentType": 5126,
      "count": 325,
      "min": [
        -31.4960994720459,
        -9.842499732971191,
        -31.4960994720459
      ],
      "max": [
        31.4960994720459,
        9.842499732971191,
        31.4960994720459
      ],
      "type": "VEC3",
      "bufferView": 0,
      "byteOffset": 17268
    },
    {
      "name": "agate_mortar_1_normals",
      "componentType": 5126,
      "count": 325,
      "min": [
        -0.8902999758720398,
        -1,
        -0.8902999758720398
      ],
      "max": [
        0.8902999758720398,
        1,
        0.8902999758720398
      ],
      "type": "VEC3",
      "bufferView": 0,
      "byteOffset": 38436
    },
    {
      "name": "agate_mortar_1_texcoords",
      "componentType": 5126,
      "count": 325,
      "min": [
        -0.125,
        0
      ],
      "max": [
        1,
        1
      ],
      "type": "VEC2",
      "bufferView": 1,
      "byteOffset": 11512
    },
    {
      "name": "agate_mortar_1_0_indices",
      "componentType": 5123,
      "count": 1146,
      "min": [
        0
      ],
      "max": [
        324
      ],
      "type": "SCALAR",
      "bufferView": 2,
      "byteOffset": 15440
    }
  ],
  "asset": {
    "generator": "obj2gltf",
    "version": "2.0"
  },
  "buffers": [
    {
      "name": "product_on-agate_mortar",
      "byteLength": 74180,
      "uri": "data:application/octet-stream;base64,"
    }
  ],
  "bufferViews": [
    {
      "name": "bufferView_0",
      "buffer": 0,
      "byteLength": 42336,
      "byteOffset": 0,
      "byteStride": 12,
      "target": 34962
    },
    {
      "name": "bufferView_1",
      "buffer": 0,
      "byteLength": 14112,
      "byteOffset": 42336,
      "byteStride": 8,
      "target": 34962
    },
    {
      "name": "bufferView_2",
      "buffer": 0,
      "byteLength": 17732,
      "byteOffset": 56448,
      "target": 34963
    }
  ],
  "materials": [
    {
      "name": "09___Default",
      "pbrMetallicRoughness": {
        "baseColorFactor": [
          0.8941,
          0.8941,
          0.8941,
          1
        ],
        "metallicFactor": 0,
        "roughnessFactor": 0.99
      },
      "emissiveFactor": [
        0,
        0,
        0
      ],
      "alphaMode": "OPAQUE",
      "doubleSided": false
    },
    {
      "name": "wire_086086086",
      "pbrMetallicRoughness": {
        "baseColorFactor": [
          0.3373,
          0.3373,
          0.3373,
          1
        ],
        "metallicFactor": 0,
        "roughnessFactor": 0.968
      },
      "emissiveFactor": [
        0,
        0,
        0
      ],
      "alphaMode": "OPAQUE",
      "doubleSided": false
    }
  ],
  "meshes": [
    {
      "name": "Plane001_1",
      "primitives": [
        {
          "attributes": {
            "POSITION": 0,
            "NORMAL": 1,
            "TEXCOORD_0": 2
          },
          "indices": 3,
          "material": 0,
          "mode": 4
        }
      ]
    },
    {
      "name": "agate_mortar_1",
      "primitives": [
        {
          "attributes": {
            "POSITION": 4,
            "NORMAL": 5,
            "TEXCOORD_0": 6
          },
          "indices": 7,
          "material": 1,
          "mode": 4
        }
      ]
    }
  ],
  "nodes": [
    {
      "name": "Plane001",
      "mesh": 0
    },
    {
      "name": "agate_mortar",
      "mesh": 1
    }
  ],
  "scene": 0,
  "scenes": [
    {
      "nodes": [
        0,
        1
      ]
    }
  ]
}
