{
  "accessors": [
    {
      "name": "infrared_analyzer_cover_1_positions",
      "componentType": 5126,
      "count": 93,
      "min": [
        -66.9291000366211,
        -105.89330291748047,
        0.17759999632835388
      ],
      "max": [
        66.92919921875,
        6.311500072479248,
        135.664794921875
      ],
      "type": "VEC3",
      "bufferView": 0,
      "byteOffset": 0
    },
    {
      "name": "infrared_analyzer_cover_1_normals",
      "componentType": 5126,
      "count": 93,
      "min": [
        -1,
        -1,
        -1
      ],
      "max": [
        1,
        1,
        1
      ],
      "type": "VEC3",
      "bufferView": 0,
      "byteOffset": 1212
    },
    {
      "name": "infrared_analyzer_cover_1_texcoords",
      "componentType": 5126,
      "count": 93,
      "min": [
        0,
        1
      ],
      "max": [
        0,
        1
      ],
      "type": "VEC2",
      "bufferView": 1,
      "byteOffset": 0
    },
    {
      "name": "infrared_analyzer_cover_1_0_indices",
      "componentType": 5123,
      "count": 198,
      "min": [
        0
      ],
      "max": [
        92
      ],
      "type": "SCALAR",
      "bufferView": 2,
      "byteOffset": 0
    },
    {
      "name": "infrared_analyzer_cover_01_1_positions",
      "componentType": 5126,
      "count": 8,
      "min": [
        -39.892799377441406,
        -82.5145034790039,
        120.25779724121094
      ],
      "max": [
        39.892799377441406,
        -82.5145034790039,
        135.664794921875
      ],
      "type": "VEC3",
      "bufferView": 0,
      "byteOffset": 1116
    },
    {
      "name": "infrared_analyzer_cover_01_1_normals",
      "componentType": 5126,
      "count": 8,
      "min": [
        0,
        1,
        0
      ],
      "max": [
        0,
        1,
        0
      ],
      "type": "VEC3",
      "bufferView": 0,
      "byteOffset": 2328
    },
    {
      "name": "infrared_analyzer_cover_01_1_texcoords",
      "componentType": 5126,
      "count": 8,
      "min": [
        0,
        1
      ],
      "max": [
        0,
        1
      ],
      "type": "VEC2",
      "bufferView": 1,
      "byteOffset": 744
    },
    {
      "name": "infrared_analyzer_cover_01_1_0_indices",
      "componentType": 5123,
      "count": 18,
      "min": [
        0
      ],
      "max": [
        7
      ],
      "type": "SCALAR",
      "bufferView": 2,
      "byteOffset": 396
    }
  ],
  "asset": {
    "generator": "obj2gltf",
    "version": "2.0"
  },
  "buffers": [
    {
      "name": "infrared_analyzer_cover",
      "byteLength": 3664,
      "uri": "data:application/octet-stream;base64,"
    }
  ],
  "bufferViews": [
    {
      "name": "bufferView_0",
      "buffer": 0,
      "byteLength": 2424,
      "byteOffset": 0,
      "byteStride": 12,
      "target": 34962
    },
    {
      "name": "bufferView_1",
      "buffer": 0,
      "byteLength": 808,
      "byteOffset": 2424,
      "byteStride": 8,
      "target": 34962
    },
    {
      "name": "bufferView_2",
      "buffer": 0,
      "byteLength": 432,
      "byteOffset": 3232,
      "target": 34963
    }
  ],
  "materials": [
    {
      "name": "08___Default",
      "pbrMetallicRoughness": {
        "baseColorFactor": [
          0.7451,
          0.7451,
          0.7451,
          1
        ],
        "metallicFactor": 0,
        "roughnessFactor": 0.9457979999999999
      },
      "emissiveFactor": [
        0,
        0,
        0
      ],
      "alphaMode": "OPAQUE",
      "doubleSided": false
    },
    {
      "name": "08___Standard",
      "pbrMetallicRoughness": {
        "baseColorFactor": [
          0.5176,
          0.4745,
          0.8235,
          1
        ],
        "metallicFactor": 0,
        "roughnessFactor": 0.931125
      },
      "emissiveFactor": [
        0,
        0,
        0
      ],
      "alphaMode": "OPAQUE",
      "doubleSided": false
    }
  ],
  "meshes": [
    {
      "name": "infrared_analyzer_cover_1",
      "primitives": [
        {
          "attributes": {
            "POSITION": 0,
            "NORMAL": 1,
            "TEXCOORD_0": 2
          },
          "indices": 3,
          "material": 0,
          "mode": 4
        }
      ]
    },
    {
      "name": "infrared_analyzer_cover_01_1",
      "primitives": [
        {
          "attributes": {
            "POSITION": 4,
            "NORMAL": 5,
            "TEXCOORD_0": 6
          },
          "indices": 7,
          "material": 1,
          "mode": 4
        }
      ]
    }
  ],
  "nodes": [
    {
      "name": "infrared_analyzer_cover",
      "mesh": 0
    },
    {
      "name": "infrared_analyzer_cover_01",
      "mesh": 1
    }
  ],
  "scene": 0,
  "scenes": [
    {
      "nodes": [
        0,
        1
      ]
    }
  ]
}
