# 3ds Max Wavefront OBJ Exporter v0.97b - (c)2007 guruware
# 创建的文件:04.02.2019 13:16:04

mtllib infrared_analyzer_cover.mtl

#
# object infrared_analyzer_cover
#

v  -66.9290 -54.7122 112.3823
v  -66.9291 0.4060 94.6658
v  43.7371 0.4060 94.6658
v  66.9292 -54.7121 112.3823
v  66.9292 0.4060 94.6658
v  -66.9290 -105.8933 117.9471
v  66.9292 -105.8932 117.9471
v  -66.9290 -105.8933 121.9143
v  66.9292 -105.8932 121.9143
v  -66.9291 0.4060 98.6028
v  -66.9290 -54.7122 118.2878
v  66.9292 -54.7121 118.2879
v  66.9292 0.4060 98.6028
v  -66.9291 6.3115 93.4015
v  66.9292 6.3115 93.4016
v  37.3150 6.3115 20.8019
v  66.9292 6.3115 0.1776
v  -66.9290 6.3115 0.1776
v  52.2399 0.4060 0.1776
v  50.8144 0.4060 0.1776
v  66.9292 0.4060 0.1776
v  -66.9290 0.4059 0.1776
v  -39.8927 -82.5145 120.2578
v  -1.1698 -82.5145 120.2578
v  1.1700 -82.5145 120.2578
v  39.8929 -82.5145 120.2578
v  39.5262 -88.4200 120.6762
v  1.1700 -88.4200 120.6762
v  -1.1698 -88.4200 120.6762
v  -39.5260 -88.4200 120.6762
v  26.3892 -88.4200 135.6648
v  26.3892 -82.5145 135.6648
v  1.1700 -82.5145 135.6648
v  1.1700 -88.4200 135.6648
v  -1.1698 -88.4200 135.6648
v  -1.1698 -82.5145 135.6648
v  -26.3891 -82.5145 135.6648
v  -26.3891 -88.4200 135.6648
# 38 vertices

vn 0.0000 -0.3060 -0.9520
vn 0.0000 -0.1081 -0.9941
vn 0.0000 -1.0000 -0.0000
vn 0.0000 0.3363 0.9417
vn 0.0000 0.6609 0.7504
vn 0.0000 1.0000 -0.0000
vn 0.0000 0.0000 -1.0000
vn 1.0000 0.0000 -0.0000
vn -1.0000 0.0000 -0.0000
vn 0.0000 0.0707 0.9975
vn 0.0000 0.0000 1.0000
vn 0.7520 0.0000 0.6591
vn -0.7520 0.0000 0.6591
# 13 vertex normals

vt 0.0000 0.0000 0.0000
# 1 texture coords

g infrared_analyzer_cover
usemtl 08___Default
s 1
f 1/1/1 2/1/1 3/1/1 4/1/1 
f 3/1/1 5/1/1 4/1/1 
s 4
f 6/1/2 1/1/2 4/1/2 7/1/2 
s 2
f 8/1/3 6/1/3 7/1/3 9/1/3 
f 10/1/4 11/1/4 12/1/4 13/1/4 
s 4
f 14/1/5 10/1/5 13/1/5 15/1/5 
s 2
f 16/1/6 17/1/6 18/1/6 14/1/6 
f 15/1/6 17/1/6 16/1/6 14/1/6 
s 4
f 19/1/7 20/1/7 18/1/7 21/1/7 
f 20/1/7 22/1/7 18/1/7 
f 18/1/7 17/1/7 21/1/7 
s 2
f 22/1/3 5/1/3 3/1/3 2/1/3 
f 20/1/3 19/1/3 5/1/3 22/1/3 
f 19/1/3 21/1/3 5/1/3 
s 16
f 7/1/8 4/1/8 12/1/8 9/1/8 
f 14/1/9 18/1/9 22/1/9 2/1/9 
f 5/1/8 15/1/8 13/1/8 4/1/8 
f 4/1/8 13/1/8 12/1/8 
f 21/1/8 17/1/8 15/1/8 5/1/8 
f 1/1/9 11/1/9 10/1/9 2/1/9 
f 2/1/9 10/1/9 14/1/9 
f 11/1/9 1/1/9 6/1/9 8/1/9 
s 4
f 11/1/10 8/1/10 23/1/10 24/1/10 
f 11/1/10 24/1/10 25/1/10 26/1/10 
f 12/1/10 11/1/10 26/1/10 9/1/10 
f 9/1/10 26/1/10 27/1/10 8/1/10 
f 8/1/10 27/1/10 28/1/10 29/1/10 
f 8/1/10 29/1/10 30/1/10 23/1/10 
f 31/1/11 32/1/11 33/1/11 34/1/11 
s 2
f 27/1/12 26/1/12 32/1/12 31/1/12 
s 16
f 35/1/3 29/1/3 28/1/3 34/1/3 
s 4
f 36/1/11 35/1/11 34/1/11 33/1/11 
s 1
f 37/1/11 38/1/11 35/1/11 36/1/11 
s 2
f 37/1/13 23/1/13 30/1/13 38/1/13 
s 16
f 31/1/3 34/1/3 28/1/3 27/1/3 
s 8
f 29/1/3 35/1/3 38/1/3 30/1/3 
# 30 polygons - 6 triangles

#
# object infrared_analyzer_cover_01
#

v  -1.1699 -82.5145 135.6648
v  1.1699 -82.5145 135.6648
v  1.1699 -82.5145 120.2578
v  -1.1699 -82.5145 120.2578
v  26.3891 -82.5145 135.6648
v  39.8928 -82.5145 120.2578
v  -39.8928 -82.5145 120.2578
v  -26.3892 -82.5145 135.6648
# 8 vertices

vn 0.0000 1.0000 -0.0000
# 1 vertex normals

vt 0.0000 0.0000 0.0000
# 1 texture coords

g infrared_analyzer_cover_01
usemtl 08___Standard
s 16
f 39/2/14 40/2/14 41/2/14 42/2/14 
f 43/2/14 44/2/14 41/2/14 40/2/14 
s 8
f 39/2/14 42/2/14 45/2/14 46/2/14 
# 3 polygons

