{
  "accessors": [
    {
      "name": "agate_mortar_1_positions",
      "componentType": 5126,
      "count": 325,
      "min": [
        -31.4960994720459,
        -9.842499732971191,
        -31.4960994720459
      ],
      "max": [
        31.4960994720459,
        9.842499732971191,
        31.4960994720459
      ],
      "type": "VEC3",
      "bufferView": 0,
      "byteOffset": 0
    },
    {
      "name": "agate_mortar_1_normals",
      "componentType": 5126,
      "count": 325,
      "min": [
        -0.8902999758720398,
        -1,
        -0.8902999758720398
      ],
      "max": [
        0.8902999758720398,
        1,
        0.8902999758720398
      ],
      "type": "VEC3",
      "bufferView": 0,
      "byteOffset": 3900
    },
    {
      "name": "agate_mortar_1_texcoords",
      "componentType": 5126,
      "count": 325,
      "min": [
        -0.125,
        0
      ],
      "max": [
        1,
        1
      ],
      "type": "VEC2",
      "bufferView": 1,
      "byteOffset": 0
    },
    {
      "name": "agate_mortar_1_0_indices",
      "componentType": 5123,
      "count": 1146,
      "min": [
        0
      ],
      "max": [
        324
      ],
      "type": "SCALAR",
      "bufferView": 2,
      "byteOffset": 0
    }
  ],
  "asset": {
    "generator": "obj2gltf",
    "version": "2.0"
  },
  "buffers": [
    {
      "name": "agate_mortar",
      "byteLength": 12692,
      "uri": "data:application/octet-stream;base64,"
    }
  ],
  "bufferViews": [
    {
      "name": "bufferView_0",
      "buffer": 0,
      "byteLength": 7800,
      "byteOffset": 0,
      "byteStride": 12,
      "target": 34962
    },
    {
      "name": "bufferView_1",
      "buffer": 0,
      "byteLength": 2600,
      "byteOffset": 7800,
      "byteStride": 8,
      "target": 34962
    },
    {
      "name": "bufferView_2",
      "buffer": 0,
      "byteLength": 2292,
      "byteOffset": 10400,
      "target": 34963
    }
  ],
  "materials": [
    {
      "name": "wire_086086086",
      "pbrMetallicRoughness": {
        "baseColorFactor": [
          0.3373,
          0.3373,
          0.3373,
          1
        ],
        "metallicFactor": 0,
        "roughnessFactor": 0.968
      },
      "emissiveFactor": [
        0,
        0,
        0
      ],
      "alphaMode": "OPAQUE",
      "doubleSided": false
    }
  ],
  "meshes": [
    {
      "name": "agate_mortar_1",
      "primitives": [
        {
          "attributes": {
            "POSITION": 0,
            "NORMAL": 1,
            "TEXCOORD_0": 2
          },
          "indices": 3,
          "material": 0,
          "mode": 4
        }
      ]
    }
  ],
  "nodes": [
    {
      "name": "agate_mortar",
      "mesh": 0
    }
  ],
  "scene": 0,
  "scenes": [
    {
      "nodes": [
        0
      ]
    }
  ]
}
