{
  "accessors": [
    {
      "name": "agate_pestle_1_positions",
      "componentType": 5126,
      "count": 288,
      "min": [
        -5.623300075531006,
        -26.79129981994629,
        5.636099815368652
      ],
      "max": [
        5.623300075531006,
        9.288299560546875,
        16.882699966430664
      ],
      "type": "VEC3",
      "bufferView": 0,
      "byteOffset": 0
    },
    {
      "name": "agate_pestle_1_normals",
      "componentType": 5126,
      "count": 288,
      "min": [
        -0.9977999925613403,
        -0.9814000129699707,
        -0.9977999925613403
      ],
      "max": [
        0.9977999925613403,
        0.9998000264167786,
        0.9977999925613403
      ],
      "type": "VEC3",
      "bufferView": 0,
      "byteOffset": 3456
    },
    {
      "name": "agate_pestle_1_0_indices",
      "componentType": 5123,
      "count": 1416,
      "min": [
        0
      ],
      "max": [
        287
      ],
      "type": "SCALAR",
      "bufferView": 1,
      "byteOffset": 0
    }
  ],
  "asset": {
    "generator": "obj2gltf",
    "version": "2.0"
  },
  "buffers": [
    {
      "name": "agate_pestle",
      "byteLength": 9744,
      "uri": "data:application/octet-stream;base64,"
    }
  ],
  "bufferViews": [
    {
      "name": "bufferView_0",
      "buffer": 0,
      "byteLength": 6912,
      "byteOffset": 0,
      "byteStride": 12,
      "target": 34962
    },
    {
      "name": "bufferView_1",
      "buffer": 0,
      "byteLength": 2832,
      "byteOffset": 6912,
      "target": 34963
    }
  ],
  "materials": [
    {
      "name": "wire_086086086",
      "pbrMetallicRoughness": {
        "baseColorFactor": [
          0.3373,
          0.3373,
          0.3373,
          1
        ],
        "metallicFactor": 0,
        "roughnessFactor": 0.968
      },
      "emissiveFactor": [
        0,
        0,
        0
      ],
      "alphaMode": "OPAQUE",
      "doubleSided": false
    }
  ],
  "meshes": [
    {
      "name": "agate_pestle_1",
      "primitives": [
        {
          "attributes": {
            "POSITION": 0,
            "NORMAL": 1
          },
          "indices": 2,
          "material": 0,
          "mode": 4
        }
      ]
    }
  ],
  "nodes": [
    {
      "name": "agate_pestle",
      "mesh": 0
    }
  ],
  "scene": 0,
  "scenes": [
    {
      "nodes": [
        0
      ]
    }
  ]
}
