# 3ds Max Wavefront OBJ Exporter v0.97b - (c)2007 guruware
# 创建的文件:17.02.2019 16:15:17

mtllib agate_pestle.mtl

#
# object agate_pestle
#

v  0.7407 -26.7141 10.9526
v  0.8017 -26.7141 11.2594
v  -0.0001 -26.7913 11.2594
v  1.4821 -26.4930 10.6455
v  1.6043 -26.4930 11.2594
v  2.2241 -26.1520 10.3381
v  2.4074 -26.1520 11.2594
v  2.9665 -25.7150 10.0306
v  3.2109 -25.7150 11.2594
v  3.7093 -25.2062 9.7230
v  4.0149 -25.2062 11.2594
v  4.4522 -24.6493 9.4152
v  4.8191 -24.6493 11.2594
v  5.1953 -24.0685 9.1074
v  5.6233 -24.0685 11.2594
v  3.2236 8.2285 9.9241
v  3.4892 8.2285 11.2594
v  2.8610 8.4777 10.0744
v  3.0967 8.4777 11.2594
v  2.4862 8.7145 10.2296
v  2.6910 8.7145 11.2594
v  2.0871 8.9264 10.3949
v  2.2591 8.9264 11.2594
v  1.6517 9.1009 10.5753
v  1.7878 9.1009 11.2594
v  1.1677 9.2257 10.7757
v  1.2639 9.2257 11.2594
v  0.6231 9.2883 11.0013
v  0.6745 9.2883 11.2594
v  0.0058 9.2762 11.2570
v  0.0063 9.2762 11.2594
v  -0.0001 -26.7913 11.2595
v  0.5669 -26.7141 10.6925
v  1.1344 -26.4930 10.1250
v  1.7023 -26.1520 9.5571
v  2.2705 -25.7150 8.9889
v  2.8390 -25.2062 8.4205
v  3.4076 -24.6493 7.8518
v  3.9763 -24.0685 7.2831
v  2.4673 8.2285 8.7922
v  2.1897 8.4777 9.0697
v  1.9028 8.7145 9.3566
v  1.5974 8.9264 9.6620
v  1.2641 9.1009 9.9953
v  0.8937 9.2257 10.3657
v  0.4769 9.2883 10.7825
v  0.0044 9.2762 11.2550
v  0.0000 -26.7913 11.2595
v  0.3068 -26.7141 10.5187
v  0.6139 -26.4930 9.7773
v  0.9213 -26.1520 9.0353
v  1.2288 -25.7150 8.2929
v  1.5364 -25.2062 7.5501
v  1.8442 -24.6493 6.8072
v  2.1520 -24.0685 6.0641
v  1.3353 8.2285 8.0358
v  1.1851 8.4777 8.3985
v  1.0298 8.7145 8.7733
v  0.8645 8.9264 9.1723
v  0.6842 9.1009 9.6077
v  0.4837 9.2257 10.0917
v  0.2581 9.2883 10.6363
v  0.0024 9.2762 11.2536
v  0.0000 -26.7141 10.4577
v  0.0000 -26.4930 9.6552
v  0.0000 -26.1520 8.8520
v  0.0000 -25.7150 8.0485
v  0.0000 -25.2062 7.2445
v  0.0000 -24.6493 6.4404
v  0.0000 -24.0685 5.6361
v  0.0000 8.2285 7.7702
v  0.0000 8.4777 8.1627
v  0.0000 8.7145 8.5684
v  0.0000 8.9264 9.0003
v  0.0000 9.1009 9.4717
v  0.0000 9.2257 9.9955
v  0.0000 9.2883 10.5849
v  0.0000 9.2762 11.2531
v  -0.3068 -26.7141 10.5187
v  -0.6139 -26.4930 9.7773
v  -0.9212 -26.1520 9.0353
v  -1.2288 -25.7150 8.2929
v  -1.5364 -25.2062 7.5502
v  -1.8442 -24.6493 6.8072
v  -2.1519 -24.0685 6.0641
v  -1.3352 8.2285 8.0358
v  -1.1850 8.4777 8.3985
v  -1.0298 8.7145 8.7733
v  -0.8645 8.9264 9.1723
v  -0.6841 9.1009 9.6077
v  -0.4837 9.2257 10.0917
v  -0.2581 9.2883 10.6363
v  -0.0024 9.2762 11.2536
v  0.0001 -26.7913 11.2595
v  -0.5669 -26.7141 10.6925
v  -1.1344 -26.4930 10.1250
v  -1.7022 -26.1520 9.5571
v  -2.2705 -25.7150 8.9889
v  -2.8389 -25.2062 8.4205
v  -3.4076 -24.6493 7.8518
v  -3.9763 -24.0685 7.2831
v  -2.4672 8.2285 8.7922
v  -2.1897 8.4777 9.0697
v  -1.9028 8.7145 9.3566
v  -1.5974 8.9264 9.6620
v  -1.2641 9.1009 9.9953
v  -0.8937 9.2257 10.3657
v  -0.4769 9.2883 10.7825
v  -0.0044 9.2762 11.2550
v  0.0001 -26.7913 11.2594
v  -0.7407 -26.7141 10.9526
v  -1.4821 -26.4930 10.6455
v  -2.2241 -26.1520 10.3382
v  -2.9665 -25.7150 10.0306
v  -3.7092 -25.2062 9.7230
v  -4.4522 -24.6493 9.4152
v  -5.1953 -24.0685 9.1075
v  -3.2236 8.2285 9.9241
v  -2.8609 8.4777 10.0744
v  -2.4861 8.7145 10.2296
v  -2.0871 8.9264 10.3949
v  -1.6516 9.1009 10.5753
v  -1.1677 9.2257 10.7757
v  -0.6231 9.2883 11.0013
v  -0.0058 9.2762 11.2570
v  -0.8017 -26.7141 11.2594
v  -1.6042 -26.4930 11.2594
v  -2.4073 -26.1520 11.2594
v  -3.2109 -25.7150 11.2594
v  -4.0149 -25.2062 11.2594
v  -4.8190 -24.6493 11.2594
v  -5.6233 -24.0685 11.2594
v  -3.4892 8.2285 11.2594
v  -3.0966 8.4777 11.2594
v  -2.6910 8.7145 11.2594
v  -2.2590 8.9264 11.2594
v  -1.7877 9.1009 11.2594
v  -1.2639 9.2257 11.2594
v  -0.6745 9.2883 11.2594
v  -0.0063 9.2762 11.2594
v  -1.4821 -26.4930 11.8733
v  -0.7407 -26.7141 11.5662
v  -2.2241 -26.1520 12.1807
v  -2.9665 -25.7150 12.4882
v  -3.7092 -25.2062 12.7958
v  -4.4522 -24.6493 13.1036
v  -5.1953 -24.0685 13.4114
v  -3.2236 8.2285 12.5947
v  -2.8609 8.4777 12.4444
v  -2.4861 8.7145 12.2892
v  -2.0871 8.9264 12.1239
v  -1.6516 9.1009 11.9435
v  -1.1677 9.2257 11.7431
v  -0.6231 9.2883 11.5175
v  -0.0058 9.2762 11.2618
v  0.0001 -26.7913 11.2593
v  -0.5669 -26.7141 11.8263
v  -1.1344 -26.4930 12.3938
v  -1.7022 -26.1520 12.9617
v  -2.2705 -25.7150 13.5299
v  -2.8389 -25.2062 14.0983
v  -3.4076 -24.6493 14.6670
v  -3.9763 -24.0685 15.2357
v  -2.4672 8.2285 13.7266
v  -2.1897 8.4777 13.4491
v  -1.9028 8.7145 13.1622
v  -1.5974 8.9264 12.8568
v  -1.2641 9.1009 12.5235
v  -0.8937 9.2257 12.1531
v  -0.4769 9.2883 11.7363
v  -0.0044 9.2762 11.2638
v  -0.3068 -26.7141 12.0001
v  -0.6139 -26.4930 12.7415
v  -0.9212 -26.1520 13.4835
v  -1.2288 -25.7150 14.2259
v  -1.5364 -25.2062 14.9687
v  -1.8441 -24.6493 15.7116
v  -2.1519 -24.0685 16.4547
v  -1.3353 8.2285 14.4830
v  -1.1850 8.4777 14.1203
v  -1.0298 8.7145 13.7455
v  -0.8645 8.9264 13.3465
v  -0.6841 9.1009 12.9111
v  -0.4837 9.2257 12.4271
v  -0.2581 9.2883 11.8825
v  -0.0024 9.2762 11.2652
v  0.0000 -26.7913 11.2593
v  0.0000 -26.7141 12.0611
v  0.0000 -26.4930 12.8636
v  0.0000 -26.1520 13.6668
v  0.0000 -25.7150 14.4703
v  0.0000 -25.2062 15.2743
v  0.0000 -24.6493 16.0784
v  0.0000 -24.0685 16.8827
v  0.0000 8.2285 14.7486
v  0.0000 8.4777 14.3561
v  0.0000 8.7145 13.9504
v  0.0000 8.9264 13.5184
v  0.0000 9.1009 13.0471
v  0.0000 9.2257 12.5233
v  0.0000 9.2883 11.9339
v  0.0000 9.2762 11.2657
v  0.3068 -26.7141 12.0001
v  0.6139 -26.4930 12.7415
v  0.9213 -26.1520 13.4835
v  1.2288 -25.7150 14.2259
v  1.5364 -25.2062 14.9687
v  1.8442 -24.6493 15.7116
v  2.1520 -24.0685 16.4547
v  1.3353 8.2285 14.4830
v  1.1851 8.4777 14.1203
v  1.0298 8.7145 13.7455
v  0.8645 8.9264 13.3465
v  0.6842 9.1009 12.9111
v  0.4837 9.2257 12.4271
v  0.2581 9.2883 11.8825
v  0.0024 9.2762 11.2652
v  0.5669 -26.7141 11.8263
v  1.1344 -26.4930 12.3938
v  1.7023 -26.1520 12.9617
v  2.2705 -25.7150 13.5299
v  2.8390 -25.2062 14.0983
v  3.4076 -24.6493 14.6670
v  3.9763 -24.0685 15.2357
v  2.4673 8.2285 13.7266
v  2.1897 8.4777 13.4491
v  1.9028 8.7145 13.1622
v  1.5974 8.9264 12.8568
v  1.2641 9.1009 12.5235
v  0.8937 9.2257 12.1531
v  0.4769 9.2883 11.7363
v  0.0044 9.2762 11.2638
v  0.7407 -26.7141 11.5662
v  1.4821 -26.4930 11.8733
v  2.2241 -26.1520 12.1807
v  2.9665 -25.7150 12.4882
v  3.7093 -25.2062 12.7958
v  4.4522 -24.6493 13.1036
v  5.1953 -24.0685 13.4114
v  3.2236 8.2285 12.5947
v  2.8610 8.4777 12.4444
v  2.4862 8.7145 12.2892
v  2.0871 8.9264 12.1239
v  1.6517 9.1009 11.9435
v  1.1677 9.2257 11.7431
v  0.6231 9.2883 11.5175
v  0.0058 9.2762 11.2618
# 247 vertices

vn 0.1772 -0.9814 -0.0734
vn 0.1918 -0.9814 -0.0000
vn -0.0967 0.9953 -0.0033
vn -0.0902 0.9953 0.0344
vn 0.3107 -0.9418 -0.1287
vn 0.3363 -0.9418 -0.0000
vn 0.4062 -0.8982 -0.1682
vn 0.4396 -0.8982 -0.0000
vn 0.4708 -0.8604 -0.1950
vn 0.5096 -0.8604 -0.0000
vn 0.5118 -0.8325 -0.2120
vn 0.5540 -0.8325 -0.0000
vn 0.5342 -0.8159 -0.2213
vn 0.5782 -0.8159 -0.0000
vn 0.5409 -0.8107 -0.2240
vn 0.5855 -0.8107 -0.0000
vn 0.9219 0.0659 -0.3819
vn 0.9978 0.0659 -0.0000
vn 0.4821 0.8530 -0.1997
vn 0.5218 0.8530 -0.0000
vn 0.5360 0.8442 -0.0000
vn 0.4952 0.8442 -0.2051
vn 0.4398 0.8794 -0.1822
vn 0.4761 0.8794 -0.0000
vn 0.3693 0.9166 -0.1530
vn 0.3997 0.9166 -0.0000
vn 0.2743 0.9549 -0.1136
vn 0.2969 0.9549 -0.0000
vn 0.1633 0.9843 -0.0676
vn 0.1767 0.9843 -0.0000
vn 0.0476 0.9987 -0.0197
vn 0.0515 0.9987 -0.0000
vn -0.0167 0.9998 0.0069
vn -0.0181 0.9998 -0.0000
vn -0.0707 0.9953 0.0663
vn 0.1356 -0.9814 -0.1356
vn 0.2378 -0.9418 -0.2378
vn 0.3109 -0.8982 -0.3109
vn 0.3604 -0.8604 -0.3604
vn 0.3917 -0.8325 -0.3917
vn 0.4089 -0.8159 -0.4089
vn 0.4140 -0.8107 -0.4140
vn 0.7056 0.0659 -0.7056
vn 0.3690 0.8530 -0.3690
vn 0.3790 0.8442 -0.3790
vn 0.3366 0.8794 -0.3366
vn 0.2826 0.9166 -0.2826
vn 0.2100 0.9549 -0.2100
vn 0.1250 0.9843 -0.1250
vn 0.0364 0.9987 -0.0364
vn -0.0128 0.9998 0.0128
vn -0.0402 0.9953 0.0880
vn 0.0734 -0.9814 -0.1772
vn 0.1287 -0.9418 -0.3107
vn 0.1682 -0.8982 -0.4062
vn 0.1950 -0.8604 -0.4708
vn 0.2120 -0.8325 -0.5118
vn 0.2213 -0.8159 -0.5342
vn 0.2240 -0.8107 -0.5409
vn 0.3819 0.0659 -0.9219
vn 0.1997 0.8530 -0.4821
vn 0.2051 0.8442 -0.4952
vn 0.1822 0.8794 -0.4398
vn 0.1530 0.9166 -0.3693
vn 0.1136 0.9549 -0.2743
vn 0.0676 0.9843 -0.1633
vn 0.0197 0.9987 -0.0476
vn -0.0069 0.9998 0.0167
vn 0.0000 -0.9814 -0.1918
vn -0.0030 0.9953 0.0966
vn 0.0000 -0.9418 -0.3363
vn 0.0000 -0.8982 -0.4396
vn 0.0000 -0.8604 -0.5096
vn 0.0000 -0.8325 -0.5540
vn 0.0000 -0.8159 -0.5782
vn 0.0000 -0.8107 -0.5855
vn 0.0000 0.0659 -0.9978
vn 0.0000 0.8530 -0.5218
vn 0.0000 0.8442 -0.5360
vn 0.0000 0.8794 -0.4761
vn 0.0000 0.9166 -0.3997
vn 0.0000 0.9549 -0.2969
vn 0.0000 0.9843 -0.1767
vn 0.0000 0.9987 -0.0515
vn 0.0000 0.9998 0.0181
vn -0.0734 -0.9814 -0.1772
vn 0.0348 0.9953 0.0899
vn -0.1287 -0.9418 -0.3107
vn -0.1682 -0.8982 -0.4062
vn -0.1950 -0.8604 -0.4708
vn -0.2120 -0.8325 -0.5118
vn -0.2213 -0.8159 -0.5342
vn -0.2240 -0.8107 -0.5409
vn -0.3819 0.0659 -0.9219
vn -0.1997 0.8530 -0.4821
vn -0.2051 0.8442 -0.4952
vn -0.1822 0.8794 -0.4398
vn -0.1530 0.9166 -0.3693
vn -0.1136 0.9549 -0.2743
vn -0.0676 0.9843 -0.1633
vn -0.0197 0.9987 -0.0476
vn 0.0069 0.9998 0.0167
vn 0.0660 0.9952 0.0716
vn -0.1356 -0.9814 -0.1356
vn -0.2378 -0.9418 -0.2378
vn -0.3109 -0.8982 -0.3109
vn -0.3604 -0.8604 -0.3604
vn -0.3917 -0.8325 -0.3917
vn -0.4089 -0.8159 -0.4089
vn -0.4140 -0.8107 -0.4140
vn -0.7056 0.0659 -0.7056
vn -0.3690 0.8530 -0.3690
vn -0.3790 0.8442 -0.3790
vn -0.3366 0.8794 -0.3366
vn -0.2826 0.9166 -0.2826
vn -0.2100 0.9549 -0.2100
vn -0.1250 0.9843 -0.1250
vn -0.0364 0.9987 -0.0364
vn 0.0128 0.9998 0.0128
vn 0.0877 0.9953 0.0405
vn -0.1772 -0.9814 -0.0734
vn -0.3107 -0.9418 -0.1287
vn -0.4062 -0.8982 -0.1682
vn -0.4708 -0.8604 -0.1950
vn -0.5118 -0.8325 -0.2120
vn -0.5342 -0.8159 -0.2213
vn -0.5409 -0.8107 -0.2240
vn -0.9219 0.0659 -0.3819
vn -0.4821 0.8530 -0.1997
vn -0.4952 0.8442 -0.2051
vn -0.4398 0.8794 -0.1822
vn -0.3693 0.9166 -0.1530
vn -0.2743 0.9549 -0.1136
vn -0.1633 0.9843 -0.0676
vn -0.0476 0.9987 -0.0197
vn 0.0167 0.9998 0.0069
vn -0.1918 -0.9814 -0.0000
vn 0.0966 0.9953 0.0026
vn -0.3363 -0.9418 -0.0000
vn -0.4396 -0.8982 -0.0000
vn -0.5096 -0.8604 -0.0000
vn -0.5540 -0.8325 -0.0000
vn -0.5782 -0.8159 -0.0000
vn -0.5855 -0.8107 -0.0000
vn -0.9978 0.0659 -0.0000
vn -0.5218 0.8530 -0.0000
vn -0.5360 0.8442 -0.0000
vn -0.4761 0.8794 -0.0000
vn -0.3997 0.9166 -0.0000
vn -0.2969 0.9549 -0.0000
vn -0.1767 0.9843 -0.0000
vn -0.0515 0.9987 -0.0000
vn 0.0181 0.9998 -0.0000
vn 0.0912 0.9953 -0.0335
vn -0.1772 -0.9814 0.0734
vn -0.3107 -0.9418 0.1287
vn -0.4062 -0.8982 0.1682
vn -0.4708 -0.8604 0.1950
vn -0.5118 -0.8325 0.2120
vn -0.5342 -0.8159 0.2213
vn -0.5409 -0.8107 0.2240
vn -0.9219 0.0659 0.3819
vn -0.4821 0.8530 0.1997
vn -0.4952 0.8442 0.2051
vn -0.4398 0.8794 0.1822
vn -0.3693 0.9166 0.1530
vn -0.2743 0.9549 0.1136
vn -0.1633 0.9843 0.0676
vn -0.0476 0.9987 0.0197
vn 0.0167 0.9998 -0.0069
vn 0.0706 0.9953 -0.0658
vn -0.1356 -0.9814 0.1356
vn -0.2378 -0.9418 0.2378
vn -0.3109 -0.8982 0.3109
vn -0.3604 -0.8604 0.3604
vn -0.3917 -0.8325 0.3917
vn -0.4089 -0.8159 0.4089
vn -0.4140 -0.8107 0.4140
vn -0.7056 0.0659 0.7056
vn -0.3690 0.8530 0.3690
vn -0.3790 0.8442 0.3790
vn -0.3366 0.8794 0.3366
vn -0.2826 0.9166 0.2826
vn -0.2100 0.9549 0.2100
vn -0.1250 0.9843 0.1250
vn -0.0364 0.9987 0.0364
vn 0.0128 0.9998 -0.0128
vn -0.0734 -0.9814 0.1772
vn 0.0393 0.9953 -0.0883
vn -0.1287 -0.9418 0.3107
vn -0.1682 -0.8982 0.4062
vn -0.1950 -0.8604 0.4708
vn -0.2120 -0.8325 0.5118
vn -0.2213 -0.8159 0.5342
vn -0.2240 -0.8107 0.5409
vn -0.3819 0.0659 0.9219
vn -0.1997 0.8530 0.4821
vn -0.2051 0.8442 0.4952
vn -0.1822 0.8794 0.4398
vn -0.1530 0.9166 0.3693
vn -0.1136 0.9549 0.2743
vn -0.0676 0.9843 0.1633
vn -0.0197 0.9987 0.0476
vn 0.0069 0.9998 -0.0167
vn 0.0031 0.9953 -0.0967
vn 0.0000 -0.9814 0.1918
vn 0.0000 -0.9418 0.3363
vn 0.0000 -0.8982 0.4396
vn 0.0000 -0.8604 0.5096
vn 0.0000 -0.8325 0.5540
vn 0.0000 -0.8159 0.5782
vn 0.0000 -0.8107 0.5855
vn 0.0000 0.0659 0.9978
vn 0.0000 0.8530 0.5218
vn 0.0000 0.8442 0.5360
vn 0.0000 0.8794 0.4761
vn 0.0000 0.9166 0.3997
vn 0.0000 0.9549 0.2969
vn 0.0000 0.9843 0.1767
vn 0.0000 0.9987 0.0515
vn 0.0000 0.9998 -0.0181
vn 0.0734 -0.9814 0.1772
vn -0.0340 0.9953 -0.0906
vn 0.1287 -0.9418 0.3107
vn 0.1682 -0.8982 0.4062
vn 0.1950 -0.8604 0.4708
vn 0.2120 -0.8325 0.5118
vn 0.2213 -0.8159 0.5342
vn 0.2240 -0.8107 0.5409
vn 0.3819 0.0659 0.9219
vn 0.1997 0.8530 0.4821
vn 0.2051 0.8442 0.4952
vn 0.1822 0.8794 0.4398
vn 0.1530 0.9166 0.3693
vn 0.1136 0.9549 0.2743
vn 0.0676 0.9843 0.1633
vn 0.0197 0.9987 0.0476
vn -0.0069 0.9998 -0.0167
vn 0.1356 -0.9814 0.1356
vn -0.0662 0.9953 -0.0704
vn 0.2378 -0.9418 0.2378
vn 0.3109 -0.8982 0.3109
vn 0.3604 -0.8604 0.3604
vn 0.3917 -0.8325 0.3917
vn 0.4089 -0.8159 0.4089
vn 0.4140 -0.8107 0.4140
vn 0.7056 0.0659 0.7056
vn 0.3690 0.8530 0.3690
vn 0.3790 0.8442 0.3790
vn 0.3366 0.8794 0.3366
vn 0.2826 0.9166 0.2826
vn 0.2100 0.9549 0.2100
vn 0.1250 0.9843 0.1250
vn 0.0364 0.9987 0.0364
vn -0.0128 0.9998 -0.0128
vn -0.0882 0.9953 -0.0399
vn 0.1772 -0.9814 0.0734
vn 0.3107 -0.9418 0.1287
vn 0.4062 -0.8982 0.1682
vn 0.4708 -0.8604 0.1950
vn 0.5118 -0.8325 0.2120
vn 0.5342 -0.8159 0.2213
vn 0.5409 -0.8107 0.2240
vn 0.9219 0.0659 0.3819
vn 0.4821 0.8530 0.1997
vn 0.4952 0.8442 0.2051
vn 0.4398 0.8794 0.1822
vn 0.3693 0.9166 0.1530
vn 0.2743 0.9549 0.1136
vn 0.1633 0.9843 0.0676
vn 0.0476 0.9987 0.0197
vn -0.0167 0.9998 -0.0069
# 272 vertex normals

g agate_pestle
usemtl wire_086086086
s 1
f 1//1 2//2 3//3 
f 3//3 3//4 1//1 
s 3
f 4//5 5//6 2//2 1//1 
s 2
f 6//7 7//8 5//6 4//5 
f 8//9 9//10 7//8 6//7 
f 10//11 11//12 9//10 8//9 
f 12//13 13//14 11//12 10//11 
f 14//15 15//16 13//14 12//13 
s 4
f 16//17 17//18 15//18 14//17 
s 2
f 18//19 19//20 17//21 16//22 
f 20//23 21//24 19//20 18//19 
f 22//25 23//26 21//24 20//23 
f 24//27 25//28 23//26 22//25 
f 26//29 27//30 25//28 24//27 
f 28//31 29//32 27//30 26//29 
f 30//33 31//34 29//32 28//31 
s 1
f 3//4 32//35 33//36 1//1 
s 3
f 34//37 4//5 1//1 33//36 
s 2
f 35//38 6//7 4//5 34//37 
f 36//39 8//9 6//7 35//38 
f 37//40 10//11 8//9 36//39 
f 38//41 12//13 10//11 37//40 
f 39//42 14//15 12//13 38//41 
s 4
f 40//43 16//17 14//17 39//43 
s 2
f 41//44 18//19 16//22 40//45 
f 42//46 20//23 18//19 41//44 
f 43//47 22//25 20//23 42//46 
f 44//48 24//27 22//25 43//47 
f 45//49 26//29 24//27 44//48 
f 46//50 28//31 26//29 45//49 
f 47//51 30//33 28//31 46//50 
s 1
f 32//35 48//52 49//53 33//36 
s 3
f 50//54 34//37 33//36 49//53 
s 2
f 51//55 35//38 34//37 50//54 
f 52//56 36//39 35//38 51//55 
f 53//57 37//40 36//39 52//56 
f 54//58 38//41 37//40 53//57 
f 55//59 39//42 38//41 54//58 
s 4
f 56//60 40//43 39//43 55//60 
s 2
f 57//61 41//44 40//45 56//62 
f 58//63 42//46 41//44 57//61 
f 59//64 43//47 42//46 58//63 
f 60//65 44//48 43//47 59//64 
f 61//66 45//49 44//48 60//65 
f 62//67 46//50 45//49 61//66 
f 63//68 47//51 46//50 62//67 
s 1
f 64//69 49//53 48//52 
f 48//52 48//70 64//69 
s 3
f 65//71 50//54 49//53 64//69 
s 2
f 66//72 51//55 50//54 65//71 
f 67//73 52//56 51//55 66//72 
f 68//74 53//57 52//56 67//73 
f 69//75 54//58 53//57 68//74 
f 70//76 55//59 54//58 69//75 
s 4
f 71//77 56//60 55//60 70//77 
s 2
f 72//78 57//61 56//62 71//79 
f 73//80 58//63 57//61 72//78 
f 74//81 59//64 58//63 73//80 
f 75//82 60//65 59//64 74//81 
f 76//83 61//66 60//65 75//82 
f 77//84 62//67 61//66 76//83 
f 78//85 63//68 62//67 77//84 
s 1
f 79//86 64//69 48//70 
f 48//70 48//87 79//86 
s 3
f 80//88 65//71 64//69 79//86 
s 2
f 81//89 66//72 65//71 80//88 
f 82//90 67//73 66//72 81//89 
f 83//91 68//74 67//73 82//90 
f 84//92 69//75 68//74 83//91 
f 85//93 70//76 69//75 84//92 
s 4
f 86//94 71//77 70//77 85//94 
s 2
f 87//95 72//78 71//79 86//96 
f 88//97 73//80 72//78 87//95 
f 89//98 74//81 73//80 88//97 
f 90//99 75//82 74//81 89//98 
f 91//100 76//83 75//82 90//99 
f 92//101 77//84 76//83 91//100 
f 93//102 78//85 77//84 92//101 
s 1
f 48//87 94//103 95//104 79//86 
s 3
f 96//105 80//88 79//86 95//104 
s 2
f 97//106 81//89 80//88 96//105 
f 98//107 82//90 81//89 97//106 
f 99//108 83//91 82//90 98//107 
f 100//109 84//92 83//91 99//108 
f 101//110 85//93 84//92 100//109 
s 4
f 102//111 86//94 85//94 101//111 
s 2
f 103//112 87//95 86//96 102//113 
f 104//114 88//97 87//95 103//112 
f 105//115 89//98 88//97 104//114 
f 106//116 90//99 89//98 105//115 
f 107//117 91//100 90//99 106//116 
f 108//118 92//101 91//100 107//117 
f 109//119 93//102 92//101 108//118 
s 1
f 94//103 110//120 111//121 95//104 
s 3
f 112//122 96//105 95//104 111//121 
s 2
f 113//123 97//106 96//105 112//122 
f 114//124 98//107 97//106 113//123 
f 115//125 99//108 98//107 114//124 
f 116//126 100//109 99//108 115//125 
f 117//127 101//110 100//109 116//126 
s 4
f 118//128 102//111 101//111 117//128 
s 2
f 119//129 103//112 102//113 118//130 
f 120//131 104//114 103//112 119//129 
f 121//132 105//115 104//114 120//131 
f 122//133 106//116 105//115 121//132 
f 123//134 107//117 106//116 122//133 
f 124//135 108//118 107//117 123//134 
f 125//136 109//119 108//118 124//135 
s 1
f 126//137 111//121 110//120 
f 110//120 110//138 126//137 
s 3
f 127//139 112//122 111//121 126//137 
s 2
f 128//140 113//123 112//122 127//139 
f 129//141 114//124 113//123 128//140 
f 130//142 115//125 114//124 129//141 
f 131//143 116//126 115//125 130//142 
f 132//144 117//127 116//126 131//143 
s 4
f 133//145 118//128 117//128 132//145 
s 2
f 134//146 119//129 118//130 133//147 
f 135//148 120//131 119//129 134//146 
f 136//149 121//132 120//131 135//148 
f 137//150 122//133 121//132 136//149 
f 138//151 123//134 122//133 137//150 
f 139//152 124//135 123//134 138//151 
f 140//153 125//136 124//135 139//152 
s 1
f 110//154 110//155 
s 3
f 141//156 127//139 126//137 142//155 
s 2
f 143//157 128//140 127//139 141//156 
f 144//158 129//141 128//140 143//157 
f 145//159 130//142 129//141 144//158 
f 146//160 131//143 130//142 145//159 
f 147//161 132//144 131//143 146//160 
s 4
f 148//162 133//145 132//145 147//162 
s 2
f 149//163 134//146 133//147 148//164 
f 150//165 135//148 134//146 149//163 
f 151//166 136//149 135//148 150//165 
f 152//167 137//150 136//149 151//166 
f 153//168 138//151 137//150 152//167 
f 154//169 139//152 138//151 153//168 
f 155//170 140//153 139//152 154//169 
s 1
f 110//154 156//171 157//172 142//155 
s 3
f 158//173 141//156 142//155 157//172 
s 2
f 159//174 143//157 141//156 158//173 
f 160//175 144//158 143//157 159//174 
f 161//176 145//159 144//158 160//175 
f 162//177 146//160 145//159 161//176 
f 163//178 147//161 146//160 162//177 
s 4
f 164//179 148//162 147//162 163//179 
s 2
f 165//180 149//163 148//164 164//181 
f 166//182 150//165 149//163 165//180 
f 167//183 151//166 150//165 166//182 
f 168//184 152//167 151//166 167//183 
f 169//185 153//168 152//167 168//184 
f 170//186 154//169 153//168 169//185 
f 171//187 155//170 154//169 170//186 
s 1
f 172//188 157//172 156//171 
f 156//171 156//189 172//188 
s 3
f 173//190 158//173 157//172 172//188 
s 2
f 174//191 159//174 158//173 173//190 
f 175//192 160//175 159//174 174//191 
f 176//193 161//176 160//175 175//192 
f 177//194 162//177 161//176 176//193 
f 178//195 163//178 162//177 177//194 
s 4
f 179//196 164//179 163//179 178//196 
s 2
f 180//197 165//180 164//181 179//198 
f 181//199 166//182 165//180 180//197 
f 182//200 167//183 166//182 181//199 
f 183//201 168//184 167//183 182//200 
f 184//202 169//185 168//184 183//201 
f 185//203 170//186 169//185 184//202 
f 186//204 171//187 170//186 185//203 
s 1
f 156//189 187//205 188//206 172//188 
s 3
f 189//207 173//190 172//188 188//206 
s 2
f 190//208 174//191 173//190 189//207 
f 191//209 175//192 174//191 190//208 
f 192//210 176//193 175//192 191//209 
f 193//211 177//194 176//193 192//210 
f 194//212 178//195 177//194 193//211 
s 4
f 195//213 179//196 178//196 194//213 
s 2
f 196//214 180//197 179//198 195//215 
f 197//216 181//199 180//197 196//214 
f 198//217 182//200 181//199 197//216 
f 199//218 183//201 182//200 198//217 
f 200//219 184//202 183//201 199//218 
f 201//220 185//203 184//202 200//219 
f 202//221 186//204 185//203 201//220 
s 1
f 203//222 188//206 187//205 
f 187//205 187//223 203//222 
s 3
f 204//224 189//207 188//206 203//222 
s 2
f 205//225 190//208 189//207 204//224 
f 206//226 191//209 190//208 205//225 
f 207//227 192//210 191//209 206//226 
f 208//228 193//211 192//210 207//227 
f 209//229 194//212 193//211 208//228 
s 4
f 210//230 195//213 194//213 209//230 
s 2
f 211//231 196//214 195//215 210//232 
f 212//233 197//216 196//214 211//231 
f 213//234 198//217 197//216 212//233 
f 214//235 199//218 198//217 213//234 
f 215//236 200//219 199//218 214//235 
f 216//237 201//220 200//219 215//236 
f 217//238 202//221 201//220 216//237 
s 1
f 218//239 203//222 187//223 
f 187//223 187//240 218//239 
s 3
f 219//241 204//224 203//222 218//239 
s 2
f 220//242 205//225 204//224 219//241 
f 221//243 206//226 205//225 220//242 
f 222//244 207//227 206//226 221//243 
f 223//245 208//228 207//227 222//244 
f 224//246 209//229 208//228 223//245 
s 4
f 225//247 210//230 209//230 224//247 
s 2
f 226//248 211//231 210//232 225//249 
f 227//250 212//233 211//231 226//248 
f 228//251 213//234 212//233 227//250 
f 229//252 214//235 213//234 228//251 
f 230//253 215//236 214//235 229//252 
f 231//254 216//237 215//236 230//253 
f 232//255 217//238 216//237 231//254 
s 1
f 3//256 233//257 218//239 187//240 
s 3
f 234//258 219//241 218//239 233//257 
s 2
f 235//259 220//242 219//241 234//258 
f 236//260 221//243 220//242 235//259 
f 237//261 222//244 221//243 236//260 
f 238//262 223//245 222//244 237//261 
f 239//263 224//246 223//245 238//262 
s 4
f 240//264 225//247 224//247 239//264 
s 2
f 241//265 226//248 225//249 240//266 
f 242//267 227//250 226//248 241//265 
f 243//268 228//251 227//250 242//267 
f 244//269 229//252 228//251 243//268 
f 245//270 230//253 229//252 244//269 
f 246//271 231//254 230//253 245//270 
f 247//272 232//255 231//254 246//271 
s 1
f 3//256 3//3 2//2 
f 2//2 233//257 3//256 
s 3
f 5//6 234//258 233//257 2//2 
s 2
f 7//8 235//259 234//258 5//6 
f 9//10 236//260 235//259 7//8 
f 11//12 237//261 236//260 9//10 
f 13//14 238//262 237//261 11//12 
f 15//16 239//263 238//262 13//14 
s 4
f 17//18 240//264 239//264 15//18 
s 2
f 19//20 241//265 240//266 17//21 
f 21//24 242//267 241//265 19//20 
f 23//26 243//268 242//267 21//24 
f 25//28 244//269 243//268 23//26 
f 27//30 245//270 244//269 25//28 
f 29//32 246//271 245//270 27//30 
f 31//34 247//272 246//271 29//32 
# 232 polygons - 16 triangles

