{
  "accessors": [
    {
      "name": "stamper_bottom_1_positions",
      "componentType": 5126,
      "count": 429,
      "min": [
        -8.2677001953125,
        -10.039400100708008,
        -8.14210033416748
      ],
      "max": [
        8.2677001953125,
        -0.590499997138977,
        8.14210033416748
      ],
      "type": "VEC3",
      "bufferView": 0,
      "byteOffset": 0
    },
    {
      "name": "stamper_bottom_1_normals",
      "componentType": 5126,
      "count": 429,
      "min": [
        -1,
        -1,
        -0.9847999811172485
      ],
      "max": [
        1,
        1,
        0.9847999811172485
      ],
      "type": "VEC3",
      "bufferView": 0,
      "byteOffset": 5148
    },
    {
      "name": "stamper_bottom_1_texcoords",
      "componentType": 5126,
      "count": 429,
      "min": [
        0.007600000128149986,
        0
      ],
      "max": [
        1.0277999639511108,
        1
      ],
      "type": "VEC2",
      "bufferView": 1,
      "byteOffset": 0
    },
    {
      "name": "stamper_bottom_1_0_indices",
      "componentType": 5123,
      "count": 1608,
      "min": [
        0
      ],
      "max": [
        428
      ],
      "type": "SCALAR",
      "bufferView": 2,
      "byteOffset": 0
    }
  ],
  "asset": {
    "generator": "obj2gltf",
    "version": "2.0"
  },
  "buffers": [
    {
      "name": "stamper_bottom",
      "byteLength": 16944,
      "uri": "data:application/octet-stream;base64,"
    }
  ],
  "bufferViews": [
    {
      "name": "bufferView_0",
      "buffer": 0,
      "byteLength": 10296,
      "byteOffset": 0,
      "byteStride": 12,
      "target": 34962
    },
    {
      "name": "bufferView_1",
      "buffer": 0,
      "byteLength": 3432,
      "byteOffset": 10296,
      "byteStride": 8,
      "target": 34962
    },
    {
      "name": "bufferView_2",
      "buffer": 0,
      "byteLength": 3216,
      "byteOffset": 13728,
      "target": 34963
    }
  ],
  "materials": [
    {
      "name": "wire_085028177",
      "pbrMetallicRoughness": {
        "baseColorFactor": [
          0.5,
          0.5,
          0.5,
          1
        ],
        "metallicFactor": 0,
        "roughnessFactor": 1
      },
      "emissiveFactor": [
        0,
        0,
        0
      ],
      "alphaMode": "OPAQUE",
      "doubleSided": false
    }
  ],
  "meshes": [
    {
      "name": "stamper_bottom_1",
      "primitives": [
        {
          "attributes": {
            "POSITION": 0,
            "NORMAL": 1,
            "TEXCOORD_0": 2
          },
          "indices": 3,
          "material": 0,
          "mode": 4
        }
      ]
    }
  ],
  "nodes": [
    {
      "name": "stamper_bottom",
      "mesh": 0
    }
  ],
  "scene": 0,
  "scenes": [
    {
      "nodes": [
        0
      ]
    }
  ]
}
