{
  "accessors": [
    {
      "name": "Plane001_1_positions",
      "componentType": 5126,
      "count": 1458,
      "min": [
        -31.30900001525879,
        -1.1851999759674072,
        -4.300899982452393
      ],
      "max": [
        -14.882100105285645,
        1.9366999864578247,
        4.054900169372559
      ],
      "type": "VEC3",
      "bufferView": 0,
      "byteOffset": 0
    },
    {
      "name": "Plane001_1_normals",
      "componentType": 5126,
      "count": 1458,
      "min": [
        -0.9771000146865845,
        -1,
        -0.9528999924659729
      ],
      "max": [
        0.8227999806404114,
        1,
        0.944100022315979
      ],
      "type": "VEC3",
      "bufferView": 0,
      "byteOffset": 17496
    },
    {
      "name": "Plane001_1_texcoords",
      "componentType": 5126,
      "count": 1458,
      "min": [
        0.3799999952316284,
        0.18000000715255737
      ],
      "max": [
        0.9200000166893005,
        0.9800000190734863
      ],
      "type": "VEC2",
      "bufferView": 1,
      "byteOffset": 0
    },
    {
      "name": "Plane001_1_0_indices",
      "componentType": 5123,
      "count": 7425,
      "min": [
        0
      ],
      "max": [
        1457
      ],
      "type": "SCALAR",
      "bufferView": 2,
      "byteOffset": 0
    }
  ],
  "asset": {
    "generator": "obj2gltf",
    "version": "2.0"
  },
  "buffers": [
    {
      "name": "KBr_on-spoon",
      "byteLength": 61508,
      "uri": "data:application/octet-stream;base64,"
    }
  ],
  "bufferViews": [
    {
      "name": "bufferView_0",
      "buffer": 0,
      "byteLength": 34992,
      "byteOffset": 0,
      "byteStride": 12,
      "target": 34962
    },
    {
      "name": "bufferView_1",
      "buffer": 0,
      "byteLength": 11664,
      "byteOffset": 34992,
      "byteStride": 8,
      "target": 34962
    },
    {
      "name": "bufferView_2",
      "buffer": 0,
      "byteLength": 14852,
      "byteOffset": 46656,
      "target": 34963
    }
  ],
  "materials": [
    {
      "name": "08___Default",
      "pbrMetallicRoughness": {
        "baseColorFactor": [
          1,
          1,
          1,
          1
        ],
        "metallicFactor": 0,
        "roughnessFactor": 0.99
      },
      "emissiveFactor": [
        0,
        0,
        0
      ],
      "alphaMode": "OPAQUE",
      "doubleSided": false
    }
  ],
  "meshes": [
    {
      "name": "Plane001_1",
      "primitives": [
        {
          "attributes": {
            "POSITION": 0,
            "NORMAL": 1,
            "TEXCOORD_0": 2
          },
          "indices": 3,
          "material": 0,
          "mode": 4
        }
      ]
    }
  ],
  "nodes": [
    {
      "name": "Plane001",
      "mesh": 0
    }
  ],
  "scene": 0,
  "scenes": [
    {
      "nodes": [
        0
      ]
    }
  ]
}
