{
  "accessors": [
    {
      "name": "press_screw_top_1_positions",
      "componentType": 5126,
      "count": 894,
      "min": [
        -18.30229949951172,
        87.95899963378906,
        -20.643699645996094
      ],
      "max": [
        18.30229949951172,
        120.77439880371094,
        20.643699645996094
      ],
      "type": "VEC3",
      "bufferView": 0,
      "byteOffset": 0
    },
    {
      "name": "press_screw_top_1_normals",
      "componentType": 5126,
      "count": 894,
      "min": [
        -1,
        -1,
        -1
      ],
      "max": [
        1,
        1,
        1
      ],
      "type": "VEC3",
      "bufferView": 0,
      "byteOffset": 88392
    },
    {
      "name": "press_screw_top_1_texcoords",
      "componentType": 5126,
      "count": 894,
      "min": [
        -18.30229949951172,
        -19.643699645996094
      ],
      "max": [
        18.30229949951172,
        21.643699645996094
      ],
      "type": "VEC2",
      "bufferView": 1,
      "byteOffset": 0
    },
    {
      "name": "press_screw_top_1_0_indices",
      "componentType": 5123,
      "count": 2922,
      "min": [
        0
      ],
      "max": [
        893
      ],
      "type": "SCALAR",
      "bufferView": 2,
      "byteOffset": 0
    },
    {
      "name": "press_screw_top_01_1_positions",
      "componentType": 5126,
      "count": 228,
      "min": [
        -6.69290018081665,
        117.12249755859375,
        -6.59119987487793
      ],
      "max": [
        6.69290018081665,
        119.87850189208984,
        6.59119987487793
      ],
      "type": "VEC3",
      "bufferView": 0,
      "byteOffset": 10728
    },
    {
      "name": "press_screw_top_01_1_normals",
      "componentType": 5126,
      "count": 228,
      "min": [
        -1,
        -1,
        -1
      ],
      "max": [
        1,
        1,
        1
      ],
      "type": "VEC3",
      "bufferView": 0,
      "byteOffset": 99120
    },
    {
      "name": "press_screw_top_01_1_texcoords",
      "componentType": 5126,
      "count": 228,
      "min": [
        -4.724400043487549,
        -3.0915000438690186
      ],
      "max": [
        4.724400043487549,
        5.0914998054504395
      ],
      "type": "VEC2",
      "bufferView": 1,
      "byteOffset": 7152
    },
    {
      "name": "press_screw_top_01_1_0_indices",
      "componentType": 5123,
      "count": 816,
      "min": [
        0
      ],
      "max": [
        227
      ],
      "type": "SCALAR",
      "bufferView": 2,
      "byteOffset": 5844
    },
    {
      "name": "press_screw_top_02_1_positions",
      "componentType": 5126,
      "count": 6244,
      "min": [
        -8.267800331115723,
        45.956298828125,
        -8.2677001953125
      ],
      "max": [
        8.2677001953125,
        88.0822982788086,
        8.2677001953125
      ],
      "type": "VEC3",
      "bufferView": 0,
      "byteOffset": 13464
    },
    {
      "name": "press_screw_top_02_1_normals",
      "componentType": 5126,
      "count": 6244,
      "min": [
        -0.9994999766349792,
        -1,
        -0.9994999766349792
      ],
      "max": [
        0.9994999766349792,
        1,
        0.9994999766349792
      ],
      "type": "VEC3",
      "bufferView": 0,
      "byteOffset": 101856
    },
    {
      "name": "press_screw_top_02_1_texcoords",
      "componentType": 5126,
      "count": 6244,
      "min": [
        0,
        0
      ],
      "max": [
        1.0123000144958496,
        1
      ],
      "type": "VEC2",
      "bufferView": 1,
      "byteOffset": 8976
    },
    {
      "name": "press_screw_top_02_1_0_indices",
      "componentType": 5123,
      "count": 9504,
      "min": [
        0
      ],
      "max": [
        6243
      ],
      "type": "SCALAR",
      "bufferView": 2,
      "byteOffset": 7476
    }
  ],
  "asset": {
    "generator": "obj2gltf",
    "version": "2.0"
  },
  "buffers": [
    {
      "name": "press_screw_top",
      "byteLength": 262196,
      "uri": "data:application/octet-stream;base64,"
    }
  ],
  "bufferViews": [
    {
      "name": "bufferView_0",
      "buffer": 0,
      "byteLength": 176784,
      "byteOffset": 0,
      "byteStride": 12,
      "target": 34962
    },
    {
      "name": "bufferView_1",
      "buffer": 0,
      "byteLength": 58928,
      "byteOffset": 176784,
      "byteStride": 8,
      "target": 34962
    },
    {
      "name": "bufferView_2",
      "buffer": 0,
      "byteLength": 26484,
      "byteOffset": 235712,
      "target": 34963
    }
  ],
  "materials": [
    {
      "name": "chrome",
      "pbrMetallicRoughness": {
        "baseColorFactor": [
          0.2353,
          0.2353,
          0.2353,
          1
        ],
        "metallicFactor": 0,
        "roughnessFactor": 0.919
      },
      "emissiveFactor": [
        0,
        0,
        0
      ],
      "alphaMode": "OPAQUE",
      "doubleSided": false
    },
    {
      "name": "wire_086086086",
      "pbrMetallicRoughness": {
        "baseColorFactor": [
          0.3373,
          0.3373,
          0.3373,
          1
        ],
        "metallicFactor": 0,
        "roughnessFactor": 0.968
      },
      "emissiveFactor": [
        0,
        0,
        0
      ],
      "alphaMode": "OPAQUE",
      "doubleSided": false
    },
    {
      "name": "02___Default",
      "pbrMetallicRoughness": {
        "baseColorFactor": [
          0.5882,
          0.5882,
          0.5882,
          1
        ],
        "metallicFactor": 0,
        "roughnessFactor": 0.943
      },
      "emissiveFactor": [
        0,
        0,
        0
      ],
      "alphaMode": "OPAQUE",
      "doubleSided": false
    }
  ],
  "meshes": [
    {
      "name": "press_screw_top_1",
      "primitives": [
        {
          "attributes": {
            "POSITION": 0,
            "NORMAL": 1,
            "TEXCOORD_0": 2
          },
          "indices": 3,
          "material": 0,
          "mode": 4
        }
      ]
    },
    {
      "name": "press_screw_top_01_1",
      "primitives": [
        {
          "attributes": {
            "POSITION": 4,
            "NORMAL": 5,
            "TEXCOORD_0": 6
          },
          "indices": 7,
          "material": 1,
          "mode": 4
        }
      ]
    },
    {
      "name": "press_screw_top_02_1",
      "primitives": [
        {
          "attributes": {
            "POSITION": 8,
            "NORMAL": 9,
            "TEXCOORD_0": 10
          },
          "indices": 11,
          "material": 2,
          "mode": 4
        }
      ]
    }
  ],
  "nodes": [
    {
      "name": "press_screw_top",
      "mesh": 0
    },
    {
      "name": "press_screw_top_01",
      "mesh": 1
    },
    {
      "name": "press_screw_top_02",
      "mesh": 2
    }
  ],
  "scene": 0,
  "scenes": [
    {
      "nodes": [
        0,
        1,
        2
      ]
    }
  ]
}
