{
  "accessors": [
    {
      "name": "model1_1_positions",
      "componentType": 5126,
      "count": 1112,
      "min": [
        -308.5013122558594,
        14.037300109863281,
        -110.05570220947266
      ],
      "max": [
        308.5013122558594,
        356.2533874511719,
        286.5888977050781
      ],
      "type": "VEC3",
      "bufferView": 0,
      "byteOffset": 0
    },
    {
      "name": "model1_1_normals",
      "componentType": 5126,
      "count": 1112,
      "min": [
        -1,
        -1,
        -1
      ],
      "max": [
        1,
        1,
        1
      ],
      "type": "VEC3",
      "bufferView": 0,
      "byteOffset": 13344
    },
    {
      "name": "model1_1_texcoords",
      "componentType": 5126,
      "count": 1112,
      "min": [
        -14.79990005493164,
        -0.5996999740600586
      ],
      "max": [
        15.872300148010254,
        15.911399841308594
      ],
      "type": "VEC2",
      "bufferView": 1,
      "byteOffset": 0
    },
    {
      "name": "model1_1_0_indices",
      "componentType": 5123,
      "count": 2712,
      "min": [
        0
      ],
      "max": [
        1111
      ],
      "type": "SCALAR",
      "bufferView": 2,
      "byteOffset": 0
    }
  ],
  "asset": {
    "generator": "obj2gltf",
    "version": "2.0"
  },
  "buffers": [
    {
      "name": "computer_desk",
      "byteLength": 586548,
      "uri": "data:application/octet-stream;base64,"
    }
  ],
  "bufferViews": [
    {
      "name": "bufferView_0",
      "buffer": 0,
      "byteLength": 26688,
      "byteOffset": 0,
      "byteStride": 12,
      "target": 34962
    },
    {
      "name": "bufferView_1",
      "buffer": 0,
      "byteLength": 8896,
      "byteOffset": 26688,
      "byteStride": 8,
      "target": 34962
    },
    {
      "name": "bufferView_2",
      "buffer": 0,
      "byteLength": 5424,
      "byteOffset": 35584,
      "target": 34963
    },
    {
      "buffer": 0,
      "byteOffset": 41008,
      "byteLength": 545538
    }
  ],
  "images": [
    {
      "name": "111",
      "mimeType": "image/jpeg",
      "bufferView": 3
    }
  ],
  "materials": [
    {
      "name": "Material__2",
      "pbrMetallicRoughness": {
        "baseColorTexture": {
          "index": 0
        },
        "baseColorFactor": [
          1,
          1,
          1,
          1
        ],
        "metallicFactor": 0,
        "roughnessFactor": 0.99
      },
      "emissiveFactor": [
        0,
        0,
        0
      ],
      "alphaMode": "OPAQUE",
      "doubleSided": false
    }
  ],
  "meshes": [
    {
      "name": "model1_1",
      "primitives": [
        {
          "attributes": {
            "POSITION": 0,
            "NORMAL": 1,
            "TEXCOORD_0": 2
          },
          "indices": 3,
          "material": 0,
          "mode": 4
        }
      ]
    }
  ],
  "nodes": [
    {
      "name": "model1",
      "mesh": 0
    }
  ],
  "samplers": [
    {
      "magFilter": 9729,
      "minFilter": 9986,
      "wrapS": 10497,
      "wrapT": 10497
    }
  ],
  "scene": 0,
  "scenes": [
    {
      "nodes": [
        0
      ]
    }
  ],
  "textures": [
    {
      "name": "111",
      "sampler": 0,
      "source": 0
    }
  ]
}
