{
  "accessors": [
    {
      "name": "tablet_on_stamper_middle_1_positions",
      "componentType": 5126,
      "count": 154,
      "min": [
        -2.6988000869750977,
        -0.7188000082969666,
        -2.6577999591827393
      ],
      "max": [
        2.6988000869750977,
        -0.45719999074935913,
        2.6577999591827393
      ],
      "type": "VEC3",
      "bufferView": 0,
      "byteOffset": 0
    },
    {
      "name": "tablet_on_stamper_middle_1_normals",
      "componentType": 5126,
      "count": 154,
      "min": [
        -1,
        -1,
        -0.9847999811172485
      ],
      "max": [
        1,
        1,
        0.9847999811172485
      ],
      "type": "VEC3",
      "bufferView": 0,
      "byteOffset": 1848
    },
    {
      "name": "tablet_on_stamper_middle_1_texcoords",
      "componentType": 5126,
      "count": 154,
      "min": [
        -0.027799999341368675,
        0
      ],
      "max": [
        0.9721999764442444,
        1
      ],
      "type": "VEC2",
      "bufferView": 1,
      "byteOffset": 0
    },
    {
      "name": "tablet_on_stamper_middle_1_0_indices",
      "componentType": 5123,
      "count": 648,
      "min": [
        0
      ],
      "max": [
        153
      ],
      "type": "SCALAR",
      "bufferView": 2,
      "byteOffset": 0
    }
  ],
  "asset": {
    "generator": "obj2gltf",
    "version": "2.0"
  },
  "buffers": [
    {
      "name": "tablet_on-stamper_middle",
      "byteLength": 6224,
      "uri": "data:application/octet-stream;base64,"
    }
  ],
  "bufferViews": [
    {
      "name": "bufferView_0",
      "buffer": 0,
      "byteLength": 3696,
      "byteOffset": 0,
      "byteStride": 12,
      "target": 34962
    },
    {
      "name": "bufferView_1",
      "buffer": 0,
      "byteLength": 1232,
      "byteOffset": 3696,
      "byteStride": 8,
      "target": 34962
    },
    {
      "name": "bufferView_2",
      "buffer": 0,
      "byteLength": 1296,
      "byteOffset": 4928,
      "target": 34963
    }
  ],
  "materials": [
    {
      "name": "08___Default",
      "pbrMetallicRoughness": {
        "baseColorFactor": [
          1,
          1,
          1,
          1
        ],
        "metallicFactor": 0,
        "roughnessFactor": 0.99
      },
      "emissiveFactor": [
        0,
        0,
        0
      ],
      "alphaMode": "OPAQUE",
      "doubleSided": false
    }
  ],
  "meshes": [
    {
      "name": "tablet_on_stamper_middle_1",
      "primitives": [
        {
          "attributes": {
            "POSITION": 0,
            "NORMAL": 1,
            "TEXCOORD_0": 2
          },
          "indices": 3,
          "material": 0,
          "mode": 4
        }
      ]
    }
  ],
  "nodes": [
    {
      "name": "tablet_on_stamper_middle",
      "mesh": 0
    }
  ],
  "scene": 0,
  "scenes": [
    {
      "nodes": [
        0
      ]
    }
  ]
}
